<?xml version="1.0" encoding="utf-8"?>
<!-- Generator: Adobe Illustrator 24.2.1, SVG Export Plug-In . SVG Version: 6.00 Build 0)  -->
<svg version="1.1" id="Layer_1" xmlns="http://www.w3.org/2000/svg" xmlns:xlink="http://www.w3.org/1999/xlink" x="0px" y="0px"
	 viewBox="0 0 4000 4000" style="enable-background:new 0 0 4000 4000;" xml:space="preserve">
<style type="text/css">
	.st0{fill:#157AF7;}
	.st1{fill:#F4F6FC;}
	.st2{fill:#3F7AD5;}
	.st3{fill:#F8F9FD;}
	.st4{fill:#4E7CCD;}
	.st5{fill:#FFFFFF;}
</style>
<g>
	<path class="st0" d="M689.15,1829.98c1.28-18.8-3.45-38.09,4.56-56.35c235.03,0.06,470.05,0.12,705.08,0.18
		c9.36,27.59,4.7,55.97,4.68,84.08c-43.57,2.28-86.28-3.89-128.73-12.92c-8.41-1.79-16.66-0.27-25.24,1.19
		c-38.9,6.61-77.98,12.37-117.28,2.34c-25.58-6.52-52-8.06-77.98-8.72c-63.75-1.62-127.58-0.39-191.37-0.61
		c-19.44-0.07-38.95,2.74-57.4,6.59c-38.09,7.96-76.03,13.14-114.86,12.01C690.13,1848.52,689.64,1839.25,689.15,1829.98z"/>
	<path class="st0" d="M1398.79,1773.82c-235.03-0.06-470.05-0.12-705.08-0.18c3.4-30.95,15.25-57.93,37.63-79.94
		c7.08,9.43,17.27,5.18,25.99,5.19c191.32,0.26,382.63,0.2,573.95,0.19c6.22,0,12.44-0.01,18.66-0.17c4.7-0.12,6.65-3.26,7.52-7.4
		C1382.87,1713.1,1394.61,1741.56,1398.79,1773.82z"/>
	<path class="st0" d="M1399.35,2213.05c1.81,32.78-10.14,60.45-31.41,84.65c-8.29-5.23-17.49-5.28-26.91-5.28
		c-197.91,0.09-395.82,0.08-593.73,0.02c-8.59,0-17.09-0.28-24.69,4.67c-18.1-21.69-27.21-47.12-31.12-74.72
		c29.55,0,59.09-0.07,88.64,0.05c17.19,0.07,33.56-3.94,49.68-9.37c32.46,11.72,67.03,10.96,100.39,12.95
		c63.27,3.76,126.98,2.85,190.16-4.29c13.86-1.57,29.19-3.26,41-13.31c48.26-4.67,96.53,10.63,144.79-0.03
		c12.38,4.49,25.2,4.99,38.21,4.77C1362.68,2212.83,1381.02,2213.06,1399.35,2213.05z"/>
	<path class="st0" d="M722.61,2297.11c7.59-4.94,16.1-4.67,24.69-4.67c197.91,0.06,395.82,0.07,593.73-0.02
		c9.41,0,18.61,0.05,26.91,5.28c-22.03,33.29-55.29,48.45-92.61,56.12c-22.04,4.53-44.57,5.81-67.12,5.8
		c-107.93-0.02-215.87,0.21-323.8-0.15c-28.65-0.1-57.13-1.89-85.17-9.86C767.47,2340.59,742.11,2323.46,722.61,2297.11z"/>
	<path class="st0" d="M1357.47,1691.51c-0.87,4.14-2.83,7.28-7.52,7.4c-6.22,0.16-12.44,0.17-18.66,0.17
		c-191.32,0.01-382.63,0.07-573.95-0.19c-8.71-0.01-18.91,4.24-25.99-5.19c31.82-38.04,75.61-48.17,121.91-51.34
		c82.1-5.62,164.26,2.43,246.39-0.16c45.68-1.44,91.31-2.69,137.03-0.13C1282.87,1644.65,1324.78,1656.49,1357.47,1691.51z"/>
	<path class="st0" d="M690.61,1857.78c38.84,1.13,76.77-4.05,114.86-12.01c18.44-3.85,37.96-6.66,57.4-6.59
		c63.79,0.22,127.62-1,191.37,0.61c25.98,0.66,52.41,2.2,77.98,8.72c39.3,10.03,78.38,4.26,117.28-2.34
		c8.58-1.46,16.83-2.98,25.24-1.19c42.45,9.03,85.16,15.2,128.73,12.92c1.35,23.37,1.2,46.74,0.01,70.11
		c-3.86,0.01-7.79-0.44-11.57,0.1c-32.97,4.7-58.61-7.7-79.12-33.02c-6.87-8.49-15.34-15.19-26.2-18.21
		c-7.32-8.02-16.61-10.9-27.18-10.42c-4.46-5.39-9.5-3.92-14.57-1.14c-10.84,5.93-22.2,10.71-32.49,17.92
		c-21.66,15.18-43.23,17.31-65.89-0.33c-22.83-17.77-48.95-29.45-78.67-29.55c-72.94-0.24-145.89-0.02-218.84-0.16
		c-8.68-0.02-16.51,2.01-24.75,4.79c-27.09,9.12-46.08,27.01-59.81,51.36c-10.6-24.39-28.46-36.26-55.6-32.81
		c-6.01,0.76-12.2,0.16-18.3,0.18C690.54,1870.4,690.58,1864.09,690.61,1857.78z"/>
	<path class="st0" d="M1403.48,2030.78c1.39,32.71,1.2,65.43,0.02,98.14c-9.25,0.01-18.61-0.88-27.73,0.22
		c-20.5,2.46-33.74-7.86-43.52-23.84c-6.31-10.31-11.15-21.53-16.65-32.34l-0.12-0.03c-0.2-15.45,1.6-31.24-1.03-46.27
		c-5.45-31.13-3.1-62.77-8.1-93.83c12.06,17.4,12.01,39.11,21.24,57.89c13.62,27.73,30.91,45.74,64.3,40.18
		C1395.65,2030.29,1399.61,2030.8,1403.48,2030.78z"/>
	<path class="st0" d="M1403.48,2030.78c-3.87,0.02-7.83-0.49-11.59,0.14c-33.39,5.56-50.67-12.46-64.3-40.18
		c-9.23-18.78-9.18-40.5-21.24-57.89c-2.96-9.51-6.21-18.95-8.76-28.57c-1.52-5.73-0.07-12.95-8.93-13.74
		c-0.68-4.55-1.37-9.1-2.05-13.65c10.85,3.01,19.33,9.72,26.2,18.21c20.5,25.32,46.15,37.73,79.12,33.02
		c3.79-0.54,7.71-0.09,11.57-0.1C1403.48,1962.27,1403.48,1996.52,1403.48,2030.78z"/>
	<path class="st0" d="M829.81,2213.07c-16.13,5.43-32.49,9.44-49.68,9.37c-29.55-0.12-59.09-0.04-88.64-0.05
		c-3.03-16.94-2.16-34.03-1.92-51.09c0.84-23.44,0.84-23.53,22.25-23.63c25.41-0.12,50.9,1.11,75.95-4.68
		C801.78,2166.35,815.8,2189.71,829.81,2213.07z"/>
	<path class="st0" d="M1315.59,2072.96c5.5,10.81,10.34,22.02,16.65,32.34c9.78,15.98,23.02,26.3,43.52,23.84
		c9.12-1.1,18.48-0.21,27.73-0.22c0.25,22.31,0.36,44.63,0.84,66.94c0.14,6.41-0.92,12.16-4.99,17.19
		c-18.33,0-36.66-0.22-54.99,0.09c-13.01,0.22-25.83-0.28-38.21-4.77c0.24-9.15-0.37-18.11,4-27.02
		c7.86-16.03,9.58-33.43,10.41-51.3C1321.46,2110.62,1316.45,2092.04,1315.59,2072.96z"/>
	<path class="st0" d="M787.77,2143c-25.06,5.79-50.54,4.55-75.95,4.68c-21.41,0.1-21.41,0.19-22.25,23.63
		c-4.06-4.64-2.76-10.3-2.77-15.61c-0.16-103.38-0.26-206.75-0.27-310.13c0-5.26-1.56-10.96,2.62-15.59
		c0.49,9.27,0.97,18.54,1.46,27.8c-0.04,6.31-0.07,12.62-0.11,18.93c0.02,20.18,0.05,40.36,0.07,60.54
		c-0.01,24.92-0.03,49.84-0.04,74.76c-0.22,21.5-0.55,42.99-0.6,64.49c-0.01,5.89-1.05,12.17,7.26,14.74
		c24.01,7.42,47.4-3.54,57.88-27.71c8.42,1.7,15.28-4.41,23.31-4.68c-0.61,19.32,2.95,37.95,9.35,56.1
		C787.74,2124.29,787.76,2133.64,787.77,2143z"/>
	<path class="st0" d="M787.77,2143c-0.01-9.35-0.03-18.7-0.04-28.05c1.6,0,3.19,0.01,4.79,0.01c18.2,45.08,52.76,68.1,99.83,74.75
		c41.65,5.89,83.53,4.29,125.36,4.7c42.69,0.43,84.93-1.74,125-18.7c-4.06,28.11-3.9,28.4,18.66,32.69
		c-11.81,10.05-27.13,11.75-41,13.31c-63.18,7.14-126.9,8.05-190.16,4.29c-33.36-1.98-67.93-1.22-100.39-12.95
		C815.8,2189.71,801.78,2166.35,787.77,2143z"/>
	<path class="st0" d="M1161.36,2208.4c-22.56-4.3-22.72-4.58-18.66-32.69c5.68-10.51,15.5-17.27,23.47-25.69
		c10.94-11.56,23.1-14.44,37.25-4.85c8.95,6.06,18.61,11.09,28.01,16.48c37,21.21,72,1.51,74.71-42.01
		c8.08-6.47,3.38-15.51,4.69-23.35c1.3-7.83-3.43-16.87,4.64-23.35l0.12,0.03c0.86,19.08,5.87,37.66,4.97,57.09
		c-0.83,17.87-2.55,35.27-10.41,51.3c-4.37,8.91-3.76,17.87-4,27.02C1257.89,2219.03,1209.62,2203.73,1161.36,2208.4z"/>
	<path class="st0" d="M764.4,1909.34c13.73-24.35,32.72-42.24,59.81-51.36c8.24-2.77,16.07-4.8,24.75-4.79
		c72.95,0.15,145.89-0.08,218.84,0.16c29.72,0.1,55.83,11.78,78.67,29.55c22.66,17.64,44.23,15.51,65.89,0.33
		c10.29-7.21,21.65-11.99,32.49-17.92c5.08-2.78,10.11-4.24,14.57,1.14c-10.86,9.68-21.72,19.36-32.58,29.04
		c-14.23,6.47-20.06,23.62-35.78,28.21c-14.6,5.19-27.54,4.58-37.07-9.84c-1.91-2.89-4.94-2.87-7.09,0.49
		c-8.8-8.39-10.22-22.84-22.98-27.98c-16.64-17.39-37.98-23.3-60.97-23.41c-71.55-0.37-143.11-0.25-214.66-0.09
		c-25.07,0.06-34.47,6.55-42.02,27.6c-1.18,0.24-2.37,0.37-3.57,0.38c-2.73,0.45-4.68,1.9-5.79,4.46
		c-9.06,9.29-12.19,21.94-18.54,32.76c-7.58-1.78-7.91-10.78-13.97-14.07C764.41,1912.46,764.41,1910.9,764.4,1909.34z"/>
	<path class="st1" d="M1226.83,1895.51c10.86-9.68,21.72-19.36,32.58-29.04c10.58-0.49,19.86,2.39,27.18,10.42
		c0.68,4.55,1.37,9.1,2.05,13.65c-0.49,4.74-0.98,9.47-1.47,14.21c-14.01,7.13-8.4,20.24-8.81,31.05
		c-0.38,10.09-2.39,16.09-14.2,15.74c-19.31-0.57-38.65-0.27-57.98-0.08c-7.63,0.08-13.68-1.97-16.88-9.47
		c1.62-3.09,3.24-6.17,4.87-9.26c9.06-4.5,14.05-13.65,21.97-19.32C1222.54,1908.84,1228.51,1904.62,1226.83,1895.51z"/>
	<path class="st0" d="M764.4,1909.34c0.01,1.56,0.01,3.11,0,4.67c-20.66,20.3-45.67,26.77-73.83,23.24
		c-0.02-20.18-0.05-40.36-0.07-60.54c6.1-0.02,12.29,0.58,18.3-0.18C735.94,1873.08,753.8,1884.95,764.4,1909.34z"/>
	<path class="st2" d="M1287.18,1904.74c0.49-4.74,0.98-9.47,1.47-14.21c8.87,0.79,7.42,8,8.93,13.74c2.55,9.62,5.8,19.06,8.76,28.57
		c5,31.05,2.65,62.7,8.1,93.83c2.63,15.02,0.83,30.82,1.03,46.27c-8.07,6.49-3.33,15.52-4.64,23.35c-1.3,7.83,3.39,16.87-4.69,23.35
		c-7.45-7.93-0.8-20.45-9.11-28.1c0-51.64,0-103.27,0-154.91c-8.4,10.07-0.71,22.76-8.24,32.57c-0.57-12.12-1.14-24.25-1.71-36.37
		C1288.11,1923.47,1288.67,1914.11,1287.18,1904.74z"/>
	<path class="st0" d="M690.57,1937.25c28.16,3.53,53.17-2.93,73.83-23.24c6.06,3.29,6.39,12.29,13.97,14.07
		c-2.32,19.27-12.59,36.55-13.99,56.05c-14,14.84-27.71,30.05-51.07,28.1c-7.55-0.63-15.19-0.18-22.79-0.22
		C690.55,1987.09,690.56,1962.17,690.57,1937.25z"/>
	<path class="st0" d="M690.54,2012.01c7.6,0.04,15.24-0.41,22.79,0.22c23.36,1.95,37.06-13.26,51.07-28.1
		c-5.93,26.13-1.81,53.45-9.31,79.39c-10.49,24.17-33.87,35.13-57.88,27.71c-8.31-2.57-7.27-8.85-7.26-14.74
		C689.99,2055,690.31,2033.51,690.54,2012.01z"/>
	<path class="st0" d="M755.08,2063.53c7.5-25.95,3.38-53.26,9.31-79.39c1.39-19.5,11.67-36.78,13.99-56.05
		c6.35-10.82,9.48-23.47,18.54-32.76c-11.79,53.87-17.65,108.41-18.53,163.52C770.36,2059.12,763.5,2065.23,755.08,2063.53z"/>
	<path class="st0" d="M778.38,2058.85c0.88-55.11,6.75-109.65,18.53-163.52c1.1-2.56,3.06-4.01,5.79-4.46
		c-0.56,9.39-1.12,18.79-1.68,28.18c-6.61,6.33-3.61,14.51-3.73,21.84c-0.47,28.42-0.37,56.85-0.48,85.28
		c-6.72,5.27-4.18,12.75-4.25,19.37c-0.25,23.14-0.06,46.28-0.03,69.42c-1.6,0-3.19-0.01-4.79-0.01
		C781.34,2096.79,777.78,2078.17,778.38,2058.85z"/>
	<path class="st0" d="M792.52,2114.95c-0.02-23.14-0.22-46.28,0.03-69.42c0.07-6.62-2.47-14.1,4.25-19.37
		c1.66,21.59-3.16,43.61,2.61,64.81c14.08,51.75,52.77,77.17,106.7,79.46c58.06,2.47,116.32,1.31,174.47,0.27
		c33.05-0.59,62.18-11.68,80.7-41.66c16.73-27.1,16.65-27.2,42.8-9.09c3.79,2.63,7.1,5.95,10.84,8.68
		c11.26,8.2,22.65,16.36,35.71,21.37c17.1,6.56,27.34,1.14,32.37-16.21c16.65-10.1,13.3-26.86,14.05-42.26
		c8.31,7.65,1.66,20.17,9.11,28.1c-2.71,43.52-37.72,63.21-74.71,42.01c-9.4-5.39-19.06-10.41-28.01-16.48
		c-14.15-9.58-26.32-6.7-37.25,4.85c-7.97,8.42-17.79,15.18-23.47,25.69c-40.06,16.96-82.31,19.13-125,18.7
		c-41.83-0.42-83.71,1.18-125.36-4.7C845.28,2183.05,810.72,2160.03,792.52,2114.95z"/>
	<path class="st3" d="M1123.91,1886.39c12.76,5.13,14.18,19.58,22.98,27.98c-0.09,2.94-0.18,5.88-0.27,8.82
		c-7.8,11.79-2.03,25.06-4.09,37.48c-10.85,0.17-16.36,8.76-21.94,15.63c-11.34,13.95-25.02,17.72-42.63,17.52
		c-76.7-0.85-153.41-0.46-230.11-0.26c-12.45,0.03-24.66-0.4-36.41-4.93c2.47-23.61-4.84-46.58-4.63-70.04
		c21.11,6.24,42.8,4.74,64.36,4.76c75.93,0.06,151.87,0.03,227.8,0.02c5.42,0,10.93,0.53,16.25-0.22
		c14.45-2.05,18.14-9.61,11.32-23.28C1124.33,1895.43,1124.09,1891.01,1123.91,1886.39z"/>
	<path class="st3" d="M1123.91,1886.39c0.18,4.62,0.42,9.04,2.62,13.47c6.82,13.67,3.13,21.23-11.32,23.28
		c-5.32,0.76-10.83,0.22-16.25,0.22c-75.93,0.01-151.87,0.04-227.8-0.02c-21.56-0.02-43.25,1.48-64.36-4.76
		c-0.18-9.37-0.36-18.74-0.54-28.1c7.55-21.05,16.95-27.54,42.02-27.6c71.55-0.16,143.11-0.27,214.66,0.09
		C1085.93,1863.09,1107.27,1869.01,1123.91,1886.39z"/>
	<path class="st3" d="M806.27,1890.48c0.18,9.37,0.36,18.74,0.54,28.1c-0.2,23.46,7.11,46.43,4.63,70.04
		c-0.41,27.12-1.51,54.26,4.59,81.04c3.98,17.45,8.58,21.81,26.92,21.85c80.1,0.14,160.21-0.37,240.31,0.4
		c17.65,0.17,29.79-7.63,34.38-22.11c11.28-35.58,32.15-69.27,24.9-109.13c2.06-12.42-3.71-25.69,4.09-37.48
		c7.31,8.26,4.49,18.61,5.81,28.11c-0.43,31.08-0.86,62.15-1.29,93.23c-6.68,15.63-2.48,32.11-3.71,48.16
		c-1.9,24.79-13.54,36.42-38.46,36.48c-72.25,0.19-144.51-0.06-216.76,0.15c-16.84,0.05-32.6-3.98-46.3-13.13
		c-19.25-12.87-37.98-26.12-40.5-53.05c-0.93-9.89-2.61-19.85-2.78-29.87c-0.61-38.07-1.09-76.15-1.62-114.23
		c0.56-9.39,1.12-18.79,1.68-28.18C803.9,1890.85,805.09,1890.73,806.27,1890.48z"/>
	<path class="st4" d="M1152.43,1951.3c-1.31-9.5,1.51-19.85-5.81-28.11c0.09-2.94,0.18-5.88,0.27-8.82
		c2.15-3.36,5.18-3.38,7.09-0.49c9.53,14.41,22.48,15.03,37.07,9.84c-0.52,1.48-1.05,2.97-1.57,4.45
		c-12.71,5.3-11.33,19.44-17.94,28.58c-3.58-5.71-10.82-1.06-14.93-5.28C1155.24,1951.01,1153.84,1950.96,1152.43,1951.3z"/>
	<path class="st1" d="M1189.48,1928.17c0.52-1.48,1.05-2.97,1.57-4.45c15.72-4.59,21.54-21.74,35.78-28.21
		c1.68,9.12-4.29,13.33-10.67,17.9c-7.93,5.67-12.92,14.83-21.97,19.32C1192.62,1931.21,1191.05,1929.69,1189.48,1928.17z"/>
	<path class="st1" d="M1287.18,1904.74c1.49,9.37,0.93,18.73-0.1,28.09c-2.58,1.98-3.54,4.63-4.27,7.83
		c-6.33,27.51-4.89,55.47-4.57,83.3c0.14,11.8-3.66,16.81-16,16.41c-20.18-0.65-40.43-0.74-60.59,0.24
		c-17.2,0.83-20.61-0.36-21.19-16.2c-0.79-21.74-0.21-43.53-0.43-65.3c-0.08-7.6,1.73-13.83,9.28-17.12
		c3.2,7.49,9.25,9.54,16.88,9.47c19.33-0.19,38.67-0.49,57.98,0.08c11.82,0.35,13.82-5.66,14.2-15.74
		C1278.79,1924.98,1273.18,1911.87,1287.18,1904.74z"/>
	<path class="st1" d="M1189.32,1941.99c-7.55,3.29-9.36,9.51-9.28,17.12c0.23,21.77-0.36,43.55,0.43,65.3
		c0.58,15.85,3.99,17.03,21.19,16.2c20.16-0.97,40.41-0.89,60.59-0.24c12.34,0.4,16.13-4.61,16-16.41
		c-0.32-27.83-1.76-55.78,4.57-83.3c0.74-3.2,1.69-5.84,4.27-7.83c0.57,12.12,1.14,24.25,1.71,36.37
		c-0.56,28.47-1.11,56.94-1.67,85.4c-8.06,13.58-2.65,28.55-4.24,42.8c-1.1,9.88,0.88,21.42-10.41,26
		c-10.92,4.43-18.67-4.25-26.55-10.26c-2.44-1.86-4.53-4.19-6.86-6.22c-20.8-18.03-41.61-36.03-62.42-54.04
		c-7.37-31.75-3.94-64.07-5.11-96.14c6.61-9.13,5.23-23.28,17.94-28.58c1.57,1.52,3.14,3.04,4.7,4.56
		C1192.56,1935.81,1190.94,1938.9,1189.32,1941.99z"/>
	<path class="st0" d="M1287.13,2054.6c0.56-28.47,1.11-56.94,1.67-85.4c7.53-9.82-0.15-22.5,8.24-32.57c0,51.64,0,103.27,0,154.91
		c-0.75,15.4,2.6,32.15-14.05,42.26c-1.61-0.05-3.22-0.09-4.84-0.14c6.72-8.89,10.38-18.38,9.62-30.06
		C1286.72,2087.32,1287.27,2070.94,1287.13,2054.6z"/>
	<path class="st0" d="M1278.16,2133.65c1.61,0.05,3.22,0.09,4.84,0.14c-5.03,17.34-15.27,22.77-32.37,16.21
		c-13.06-5.01-24.46-13.17-35.71-21.37c-3.74-2.72-7.04-6.05-10.84-8.68c-26.15-18.11-26.07-18.01-42.8,9.09
		c-18.51,29.99-47.65,41.07-80.7,41.66c-58.15,1.04-116.41,2.2-174.47-0.27c-53.93-2.3-92.62-27.71-106.7-79.46
		c-5.77-21.21-0.95-43.23-2.61-64.81c0.11-28.43,0.01-56.86,0.48-85.28c0.12-7.33-2.88-15.51,3.73-21.84
		c0.53,38.08,1,76.15,1.62,114.23c0.16,10.03,1.85,19.99,2.78,29.87c2.52,26.92,21.25,40.18,40.5,53.05
		c13.7,9.15,29.46,13.18,46.3,13.13c72.25-0.21,144.51,0.04,216.76-0.15c24.91-0.06,36.56-11.69,38.46-36.48
		c1.23-16.05-2.97-32.54,3.71-48.16c0.4,9.24,0.26,18.54,1.33,27.7c1.29,11.1-4.48,23.11,4.08,33.3c1.46-1.71,3.78-3.21,4.24-5.16
		c5.32-22.52,8.84-23.47,26.85-8.38c15.84,13.27,32.08,26.08,48.47,38.67c6.77,5.2,14.57,8.67,23.59,7.61
		C1266.49,2139.29,1272.43,2136.9,1278.16,2133.65z M1137.85,2138.08c-11.65-9.91-23.18,1-34.94,0.7
		c-57.44-1.48-114.94-1.27-172.4-0.44c-31.16,0.45-61.54-1.78-90.73-13.43c-2.17-0.81-4.38-2.37-6.51-2.27
		c-3.08,0.15-2.86,3.06-1.67,4.84c3.52,5.27,8.54,8.67,14.1,11.82c20.05,11.37,42.19,16.67,64.45,17.19
		c56.78,1.33,113.66,1.8,170.4-0.29C1100.1,2155.49,1122.05,2154.38,1137.85,2138.08z"/>
	<path class="st3" d="M1142.54,1960.67c7.25,39.87-13.62,73.56-24.9,109.13c-4.59,14.49-16.74,22.28-34.38,22.11
		c-80.1-0.77-160.2-0.26-240.31-0.4c-18.35-0.03-22.95-4.4-26.92-21.85c-6.1-26.79-5-53.92-4.59-81.04
		c11.75,4.53,23.96,4.96,36.41,4.93c76.7-0.2,153.41-0.59,230.11,0.26c17.62,0.2,31.3-3.58,42.63-17.52
		C1126.18,1969.43,1131.69,1960.84,1142.54,1960.67z"/>
	<path class="st0" d="M1156.55,2105.53c-8.56-10.19-2.79-22.19-4.08-33.3c-1.06-9.16-0.93-18.46-1.33-27.7
		c0.43-31.08,0.86-62.16,1.29-93.23c1.41-0.34,2.81-0.29,4.19,0.16C1156.6,2002.82,1156.57,2054.17,1156.55,2105.53z"/>
	<path class="st0" d="M1156.55,2105.53c0.02-51.36,0.05-102.71,0.07-154.07c4.1,4.22,11.35-0.42,14.93,5.28
		c1.17,32.08-2.27,64.4,5.11,96.14c1.6,13.54,11.43,21.59,20.73,29.46c18.75,15.85,38.01,31.12,57.36,46.24
		c3.55,2.78,4.58,5.82,4.96,9.69c-9.02,1.06-16.82-2.41-23.59-7.61c-16.38-12.59-32.63-25.4-48.47-38.67
		c-18.01-15.09-21.53-14.14-26.85,8.38C1160.33,2102.32,1158.01,2103.82,1156.55,2105.53z"/>
	<path class="st0" d="M1259.7,2138.28c-0.38-3.88-1.41-6.92-4.96-9.69c-19.35-15.12-38.61-30.39-57.36-46.24
		c-9.3-7.86-19.13-15.92-20.73-29.46c20.81,18.01,41.63,36.02,62.42,54.04c2.33,2.02,4.41,4.35,6.86,6.22
		c7.88,6.01,15.63,14.7,26.55,10.26c11.29-4.58,9.31-16.12,10.41-26c1.59-14.25-3.82-29.22,4.24-42.8
		c0.14,16.34-0.42,32.72,0.65,48.99c0.76,11.68-2.9,21.17-9.62,30.06C1272.43,2136.9,1266.49,2139.29,1259.7,2138.28z"/>
	<path class="st0" d="M1137.85,2138.08c-15.8,16.3-37.75,17.41-57.32,18.13c-56.74,2.09-113.62,1.63-170.4,0.29
		c-22.26-0.52-44.4-5.82-64.45-17.19c-5.56-3.15-10.58-6.56-14.1-11.82c-1.19-1.78-1.41-4.69,1.67-4.84
		c2.13-0.1,4.34,1.45,6.51,2.27c13.65,17,33.38,17.78,52.34,17.94c69.78,0.59,139.56,0.15,209.35,0.3
		C1113.9,2143.17,1126.16,2142.93,1137.85,2138.08z"/>
	<path class="st0" d="M1137.85,2138.08c-11.69,4.85-23.95,5.09-36.38,5.07c-69.78-0.14-139.57,0.3-209.35-0.3
		c-18.96-0.16-38.69-0.94-52.34-17.94c29.19,11.64,59.57,13.87,90.73,13.43c57.46-0.82,114.96-1.03,172.4,0.44
		C1114.67,2139.08,1126.2,2128.17,1137.85,2138.08z"/>
	<g>
		<path class="st5" d="M3208.45,1986.94c-30.14,76.51-60.39,152.97-90.35,229.55c-8.65,22.11-8.26,22.52-31.11,22.23
			c-13.89-0.18-30.95,5.47-40.79-2.48c-9.37-7.58-11.6-24.17-16.59-36.94c-26.61-68.01-53.14-136.06-79.53-204.15
			c-1.43-3.68-3.1-6.77-9.31-12.35c0,8.27,0,13.73,0,19.19c0,73.2,0.03,146.4-0.02,219.6c-0.01,22.38,2,19.35-20.28,19.48
			c-21.01,0.13-42.04-0.43-63.04,0.22c-10.32,0.32-15.07-1.28-15.02-13.6c0.47-131.6,0.38-263.21,0.11-394.81
			c-0.02-9.94,2.64-13.49,13-13.31c32.68,0.59,65.4,0.86,98.06-0.13c11.67-0.35,16.09,4.55,19.98,14.19
			c23.03,57.13,46.5,114.09,69.91,171.07c10.56,25.7,21.34,51.31,33.87,81.41c19.67-47.41,37.35-89.87,54.91-132.37
			c17.07-41.33,34.42-82.56,50.66-124.22c2.82-7.23,5.53-9.84,12.76-9.8c35.02,0.18,70.06,0.6,105.07-0.16
			c15.59-0.34,12.86,9.64,12.86,18.67c0.04,73.2,0.02,146.4,0.02,219.6c0,54.51,0.05,109.02-0.03,163.53
			c-0.03,19.56-0.16,19.63-20.46,19.71c-21.79,0.09-43.61-0.61-65.37,0.26c-12.29,0.49-15.68-3.62-15.59-15.8
			c0.54-73.2,0.27-146.4,0.27-219.6c0-6.19,0-12.37,0-18.56C3211.09,1987.24,3209.77,1987.09,3208.45,1986.94z"/>
		<path class="st5" d="M2380.14,2029.61c0.25-53.8,10.96-104.65,46.91-146.67c56.12-65.6,129.11-79.79,209.15-61.21
			c78.2,18.15,129.29,80.81,141.66,160.98c6.75,43.76,5.47,86.21-7.18,128.16c-19.83,65.74-63.65,110.12-129.14,128.02
			c-70.99,19.4-138.81,9.06-196.02-41.19c-34.52-30.32-53.37-69.67-61.03-115.22C2381.51,2064.78,2380.46,2047.37,2380.14,2029.61z
			 M2578.61,2157.04c33.73,1.22,68.39-12.93,83.56-50.6c21.92-54.43,21.84-108.08-5.38-161.81
			c-25.22-49.79-118.05-56.89-150.55-1.76c-26.63,45.17-27.39,93.03-14.26,142.91C2504.52,2133.48,2537.8,2157.86,2578.61,2157.04z"
			/>
		<path class="st5" d="M2324.39,2032.21c-0.41,51.15-10.36,99.36-42.71,141c-41.38,53.25-97.37,74.56-162.76,73.85
			c-47.82-0.52-91.06-14.96-127.78-47.03c-36.85-32.18-55.96-72.88-64.3-120.67c-7.62-43.66-5.75-86.31,7.1-128.12
			c23.68-77.07,76.95-122.41,155.98-134.28c62.36-9.36,120.78,3.55,169.13,46.91c33.57,30.1,52.78,68.43,60.93,112.95
			C2323.35,1995.29,2324.73,2013.55,2324.39,2032.21z M2123.99,2157.4c43.04-0.18,73.21-22.45,87.7-65.95
			c13.88-41.66,12.3-84.39-1.1-125.02c-9.77-29.64-29.63-53.35-64.4-59.76c-54.87-10.11-96.26,14.35-111.84,68.06
			c-9.66,33.29-11.3,67.51-3.34,100.8C2045.52,2136.23,2075.28,2155.64,2123.99,2157.4z"/>
		<rect x="1525.25" y="1813.28" class="st5" width="369.4" height="90.27"/>
		<rect x="1525.25" y="1813.28" class="st5" width="369.4" height="90.27"/>
		<polygon class="st5" points="1657.03,1903.55 1758.72,1903.55 1758.72,2108.31 1655.99,2111.77 		"/>
		<polygon class="st5" points="1655.99,2111.77 1657.03,2239.75 1758.72,2239.75 1758.72,2108.31 		"/>
	</g>
	<path class="st3" d="M802.7,1890.87c1.85-4.08,4.87-9.47,9.78-14.81c2.81-3.05,5.63-5.43,8.13-7.26c3.49,5.71,4.85,7.76,5.02,7.78
		c0,0,0,0,0,0c0.19,0.11-6.93,11.85-8.82,12.97C814.9,1890.67,802.7,1890.87,802.7,1890.87z"/>
</g>
</svg>
