<?xml version="1.0" encoding="utf-8"?>
<!-- Generator: Adobe Illustrator 24.2.1, SVG Export Plug-In . SVG Version: 6.00 Build 0)  -->
<svg version="1.1" id="Layer_1" xmlns="http://www.w3.org/2000/svg" xmlns:xlink="http://www.w3.org/1999/xlink" x="0px" y="0px"
	 viewBox="0 0 13112.89 12032" style="enable-background:new 0 0 13112.89 12032;" xml:space="preserve">
<style type="text/css">
	.st0{fill:#157AF7;}
	.st1{fill:#F4F6FC;}
	.st2{fill:#3F7AD5;}
	.st3{fill:#F8F9FD;}
	.st4{fill:#4E7CCD;}
	.st5{fill:#FFFFFF;}
</style>
<g>
	<path class="st0" d="M1561.31,5368.11c4.88-71.65-13.13-145.15,17.38-214.72c895.59,0.23,1791.19,0.47,2686.78,0.7
		c35.69,105.15,17.91,213.27,17.83,320.41c-166.03,8.69-328.78-14.82-490.53-49.23c-32.04-6.82-63.5-1.01-96.18,4.54
		c-148.22,25.17-297.14,47.14-446.91,8.93c-97.46-24.86-198.16-30.72-297.16-33.23c-242.94-6.16-486.15-1.49-729.24-2.33
		c-74.07-0.26-148.43,10.43-218.71,25.11c-145.16,30.32-289.71,50.07-437.7,45.77C1565.01,5438.75,1563.16,5403.43,1561.31,5368.11z
		"/>
	<path class="st0" d="M4265.47,5154.1c-895.59-0.23-1791.19-0.47-2686.78-0.7c12.97-117.95,58.11-220.74,143.41-304.6
		c26.98,35.94,65.82,19.74,99.03,19.78c729.03,0.99,1458.06,0.76,2187.09,0.73c23.7,0,47.42-0.04,71.11-0.66
		c17.89-0.47,25.35-12.43,28.67-28.2C4204.8,4922.73,4249.53,5031.18,4265.47,5154.1z"/>
	<path class="st0" d="M4267.58,6827.87c6.88,124.9-38.62,230.33-119.68,322.57c-31.6-19.94-66.67-20.13-102.53-20.11
		c-754.16,0.35-1508.33,0.32-2262.49,0.09c-32.72-0.01-65.14-1.06-94.08,17.78c-68.97-82.64-103.68-179.56-118.6-284.73
		c112.59,0.02,225.19-0.28,337.78,0.18c65.52,0.27,127.87-15.03,189.32-35.72c123.7,44.67,255.44,41.78,382.56,49.33
		c241.08,14.32,483.87,10.86,724.63-16.37c52.83-5.97,111.22-12.44,156.22-50.73c183.9-17.8,367.83,40.5,551.72-0.12
		c47.16,17.09,96.02,19,145.59,18.17C4127.87,6827.02,4197.73,6827.88,4267.58,6827.87z"/>
	<path class="st0" d="M1688.8,7148.19c28.94-18.83,61.36-17.79,94.08-17.78c754.16,0.23,1508.33,0.27,2262.49-0.09
		c35.86-0.02,70.93,0.17,102.53,20.11c-83.96,126.85-210.68,184.62-352.9,213.85c-83.97,17.25-169.84,22.12-255.75,22.11
		c-411.29-0.06-822.59,0.8-1233.87-0.58c-109.18-0.37-217.68-7.19-324.54-37.56C1859.76,7313.85,1763.09,7248.57,1688.8,7148.19z"/>
	<path class="st0" d="M4107.99,4840.45c-3.31,15.76-10.77,27.73-28.67,28.2c-23.69,0.62-47.41,0.66-71.11,0.66
		c-729.03,0.03-1458.06,0.26-2187.09-0.73c-33.21-0.04-72.05,16.16-99.03-19.78c121.26-144.97,288.13-183.55,464.54-195.62
		c312.87-21.41,625.94,9.26,938.9-0.62c174.07-5.49,347.97-10.25,522.19-0.51C3823.72,4661.89,3983.42,4707.03,4107.99,4840.45z"/>
	<path class="st0" d="M1566.86,5474.07c147.99,4.3,292.54-15.45,437.7-45.77c70.28-14.68,144.65-25.37,218.71-25.11
		c243.09,0.84,486.3-3.83,729.24,2.33c99,2.51,199.7,8.37,297.16,33.23c149.77,38.21,298.69,16.24,446.91-8.93
		c32.68-5.55,64.14-11.35,96.18-4.54c161.75,34.41,324.5,57.92,490.53,49.23c5.15,89.06,4.59,178.12,0.05,267.18
		c-14.71,0.03-29.68-1.68-44.1,0.38c-125.63,17.93-223.35-29.33-301.48-125.83c-26.18-32.34-58.47-57.9-99.83-69.38
		c-27.89-30.57-63.28-41.54-103.58-39.69c-17.01-20.53-36.19-14.94-55.54-4.36c-41.32,22.6-84.59,40.79-123.8,68.27
		c-82.54,57.85-164.74,65.96-251.08-1.26c-87-67.73-186.51-112.24-299.76-112.61c-277.96-0.91-555.93-0.06-833.9-0.62
		c-33.08-0.07-62.92,7.67-94.3,18.23c-103.21,34.75-175.61,102.91-227.91,195.71c-40.38-92.96-108.45-138.17-211.87-125.03
		c-22.9,2.91-46.47,0.59-69.74,0.68C1566.59,5522.15,1566.72,5498.11,1566.86,5474.07z"/>
	<path class="st0" d="M4283.32,6133.29c5.3,124.66,4.57,249.32,0.07,373.98c-35.25,0.05-70.92-3.33-105.68,0.84
		c-78.11,9.38-128.56-29.93-165.82-90.84c-24.04-39.31-42.5-82.04-63.45-123.23l-0.44-0.12c-0.78-58.86,6.09-119.06-3.94-176.3
		c-20.77-118.63-11.8-239.2-30.87-357.54c45.94,66.29,45.77,149.05,80.93,220.6c51.92,105.65,117.78,174.31,245.02,153.12
		C4253.49,6131.42,4268.57,6133.36,4283.32,6133.29z"/>
	<path class="st0" d="M4283.32,6133.29c-14.75,0.07-29.82-1.87-44.18,0.52c-127.24,21.19-193.1-47.47-245.02-153.12
		c-35.16-71.56-35-154.31-80.93-220.6c-11.27-36.26-23.67-72.21-33.38-108.88c-5.78-21.84-0.26-49.34-34.04-52.34
		c-2.61-17.33-5.22-34.67-7.83-52c41.36,11.47,73.65,37.04,99.83,69.38c78.13,96.5,175.85,143.76,301.48,125.83
		c14.43-2.06,29.39-0.34,44.1-0.38C4283.34,5872.22,4283.33,6002.76,4283.32,6133.29z"/>
	<path class="st0" d="M2097.3,6827.92c-61.45,20.69-123.81,35.99-189.32,35.72c-112.59-0.46-225.18-0.16-337.78-0.18
		c-11.57-64.56-8.21-129.67-7.31-194.7c3.2-89.31,3.2-89.65,84.78-90.04c96.83-0.47,193.94,4.24,289.43-17.82
		C1990.5,6649.91,2043.9,6738.91,2097.3,6827.92z"/>
	<path class="st0" d="M3948.43,6294.04c20.96,41.2,39.41,83.93,63.45,123.23c37.26,60.91,87.72,100.22,165.82,90.84
		c34.76-4.17,70.42-0.79,105.68-0.84c0.95,85.03,1.37,170.08,3.2,255.09c0.53,24.43-3.5,46.32-19.01,65.5
		c-69.85,0.01-139.71-0.85-209.54,0.33c-49.57,0.84-98.43-1.08-145.59-18.17c0.93-34.88-1.39-69,15.25-102.96
		c29.94-61.1,36.52-127.39,39.67-195.48C3970.78,6437.53,3951.7,6366.73,3948.43,6294.04z"/>
	<path class="st0" d="M1937.1,6560.9c-95.49,22.06-192.6,17.35-289.43,17.82c-81.58,0.39-81.58,0.73-84.78,90.04
		c-15.47-17.68-10.51-39.27-10.54-59.47c-0.62-393.93-1-787.85-1.04-1181.78c0-20.06-5.95-41.76,10-59.39
		c1.85,35.32,3.7,70.64,5.55,105.95c-0.14,24.04-0.28,48.09-0.41,72.13c0.09,76.9,0.18,153.8,0.27,230.7
		c-0.05,94.96-0.1,189.92-0.15,284.88c-0.85,81.91-2.09,163.83-2.28,245.74c-0.05,22.45-4.01,46.39,27.67,56.18
		c91.49,28.27,180.61-13.51,220.56-105.59c32.1,6.46,58.22-16.81,88.81-17.85c-2.32,73.62,11.25,144.6,35.61,213.77
		C1937,6489.64,1937.05,6525.27,1937.1,6560.9z"/>
	<path class="st0" d="M1937.1,6560.9c-0.05-35.63-0.11-71.26-0.16-106.89c6.08,0.01,12.17,0.02,18.25,0.03
		c69.34,171.77,201.04,259.5,380.41,284.85c158.71,22.44,318.28,16.34,477.69,17.93c162.67,1.63,323.65-6.61,476.32-71.26
		c-15.47,107.12-14.85,108.21,71.1,124.59c-45,38.29-103.4,44.76-156.22,50.73c-240.76,27.23-483.55,30.69-724.63,16.37
		c-127.12-7.55-258.86-4.66-382.56-49.33C2043.9,6738.91,1990.5,6649.91,1937.1,6560.9z"/>
	<path class="st0" d="M3360.72,6810.15c-85.95-16.38-86.57-17.46-71.1-124.59c21.65-40.06,59.06-65.82,89.43-97.9
		c41.68-44.03,88.03-55.01,141.96-18.5c34.12,23.1,70.92,42.25,106.75,62.78c140.97,80.8,274.36,5.76,284.7-160.07
		c30.8-24.66,12.9-59.11,17.86-88.96c4.97-29.85-13.08-64.27,17.67-88.99l0.44,0.12c3.27,72.7,22.36,143.49,18.93,217.55
		c-3.15,68.1-9.73,134.39-39.67,195.48c-16.64,33.96-14.32,68.08-15.25,102.96C3728.54,6850.65,3544.62,6792.35,3360.72,6810.15z"/>
	<path class="st0" d="M1848.05,5670.54c52.3-92.81,124.7-160.96,227.91-195.71c31.38-10.57,61.22-18.3,94.3-18.23
		c277.97,0.55,555.94-0.3,833.9,0.62c113.25,0.37,212.76,44.88,299.76,112.61c86.35,67.23,168.54,59.11,251.08,1.26
		c39.21-27.48,82.48-45.68,123.8-68.27c19.35-10.58,38.52-16.17,55.54,4.36c-41.39,36.88-82.77,73.76-124.16,110.64
		c-54.24,24.67-76.44,90.01-136.33,107.5c-55.62,19.79-104.96,17.44-141.27-37.49c-7.27-11-18.81-10.92-27.01,1.87
		c-33.52-31.98-38.95-87.05-87.57-106.61c-63.42-66.25-144.73-88.77-232.32-89.22c-272.66-1.39-545.33-0.96-817.99-0.36
		c-95.54,0.21-131.34,24.95-160.12,105.17c-4.48,0.92-9.01,1.41-13.59,1.46c-10.39,1.71-17.84,7.23-22.04,16.98
		c-34.53,35.39-46.44,83.6-70.64,124.84c-28.89-6.79-30.14-41.07-53.25-53.62C1848.07,5682.41,1848.07,5676.48,1848.05,5670.54z"/>
	<path class="st1" d="M3610.19,5617.81c41.39-36.88,82.77-73.76,124.16-110.64c40.3-1.85,75.69,9.12,103.58,39.69
		c2.61,17.33,5.22,34.67,7.83,52c-1.86,18.05-3.73,36.09-5.59,54.14c-53.38,27.18-31.99,77.13-33.56,118.32
		c-1.46,38.43-9.09,61.32-54.13,59.99c-73.58-2.18-147.29-1.03-220.93-0.29c-29.07,0.29-52.12-7.52-64.31-36.08
		c6.18-11.76,12.36-23.53,18.54-35.29c34.52-17.13,53.53-52.01,83.74-73.64C3593.83,5668.61,3616.6,5652.54,3610.19,5617.81z"/>
	<path class="st0" d="M1848.05,5670.54c0.02,5.93,0.02,11.86,0.01,17.8c-78.73,77.37-174.04,102.02-281.34,88.55
		c-0.09-76.9-0.18-153.8-0.27-230.7c23.26-0.09,46.83,2.23,69.74-0.68C1739.6,5532.37,1807.67,5577.58,1848.05,5670.54z"/>
	<path class="st2" d="M3840.17,5652.99c1.86-18.05,3.73-36.09,5.59-54.14c33.78,3,28.26,30.5,34.04,52.34
		c9.7,36.67,22.11,72.63,33.38,108.88c19.07,118.33,10.1,238.91,30.87,357.54c10.02,57.24,3.15,117.44,3.94,176.3
		c-30.75,24.72-12.7,59.15-17.67,88.99c-4.97,29.85,12.93,64.3-17.86,88.96c-28.4-30.23-3.03-77.91-34.71-107.08
		c0-196.76,0-393.53,0-590.29c-31.99,38.38-2.69,86.72-31.41,124.13c-2.18-46.2-4.35-92.4-6.53-138.59
		C3843.72,5724.37,3845.85,5688.69,3840.17,5652.99z"/>
	<path class="st0" d="M1566.72,5776.89c107.3,13.47,202.61-11.18,281.34-88.55c23.11,12.54,24.36,46.82,53.25,53.62
		c-8.85,73.43-47.99,139.28-53.31,213.59c-53.36,56.55-105.58,114.49-194.6,107.07c-28.77-2.4-57.88-0.68-86.83-0.85
		C1566.62,5966.81,1566.67,5871.85,1566.72,5776.89z"/>
	<path class="st0" d="M1566.57,6061.77c28.95,0.17,58.06-1.55,86.83,0.85c89.02,7.42,141.24-50.53,194.6-107.07
		c-22.61,99.58-6.9,203.66-35.48,302.54c-39.95,92.09-129.07,133.86-220.56,105.59c-31.68-9.79-27.72-33.72-27.67-56.18
		C1564.48,6225.59,1565.73,6143.68,1566.57,6061.77z"/>
	<path class="st0" d="M1812.52,6258.09c28.59-98.88,12.87-202.96,35.48-302.54c5.31-74.31,44.46-140.16,53.31-213.59
		c24.19-41.25,36.11-89.45,70.64-124.84c-44.91,205.28-67.27,413.13-70.62,623.13C1870.74,6241.28,1844.62,6264.55,1812.52,6258.09z
		"/>
	<path class="st0" d="M1901.33,6240.24c3.35-210,25.71-417.84,70.62-623.13c4.2-9.75,11.65-15.28,22.04-16.98
		c-2.13,35.79-4.27,71.59-6.4,107.38c-25.2,24.13-13.76,55.29-14.22,83.22c-1.8,108.3-1.42,216.64-1.85,324.96
		c-25.61,20.08-15.93,48.59-16.2,73.8c-0.96,88.17-0.22,176.36-0.13,264.54c-6.08-0.01-12.17-0.02-18.25-0.03
		C1912.58,6384.84,1899.01,6313.86,1901.33,6240.24z"/>
	<path class="st0" d="M1955.2,6454.04c-0.09-88.18-0.83-176.37,0.13-264.54c0.27-25.22-9.41-53.73,16.2-73.8
		c6.33,82.26-12.05,166.17,9.93,246.97c53.64,197.2,201.08,294.06,406.59,302.81c221.25,9.42,443.25,4.99,664.83,1.03
		c125.93-2.26,236.96-44.49,307.51-158.76c63.75-103.26,63.44-103.65,163.08-34.64c14.46,10.02,27.06,22.69,41.31,33.06
		c42.9,31.24,86.31,62.34,136.1,81.43c65.16,24.99,104.2,4.33,123.35-61.77c63.45-38.51,50.68-102.37,53.53-161.04
		c31.68,29.17,6.31,76.85,34.71,107.08c-10.34,165.83-143.73,240.88-284.7,160.07c-35.82-20.53-72.63-39.68-106.75-62.78
		c-53.93-36.51-100.28-25.54-141.96,18.5c-30.37,32.08-67.78,57.85-89.43,97.9c-152.67,64.65-313.65,72.88-476.32,71.26
		c-159.41-1.59-318.98,4.51-477.69-17.93C2156.23,6713.54,2024.54,6625.81,1955.2,6454.04z"/>
	<path class="st3" d="M3218.01,5583.08c48.62,19.56,54.05,74.63,87.57,106.61c-0.34,11.2-0.68,22.4-1.02,33.6
		c-29.71,44.93-7.74,95.5-15.58,142.82c-41.34,0.66-62.33,33.39-83.6,59.56c-43.2,53.14-95.33,67.52-162.46,66.78
		c-292.26-3.24-584.57-1.77-876.86-1.01c-47.45,0.12-93.98-1.52-138.76-18.79c9.43-89.98-18.43-177.48-17.65-266.89
		c80.43,23.76,163.09,18.06,245.23,18.13c289.35,0.24,578.71,0.1,868.06,0.07c20.66,0,41.66,2.03,61.93-0.85
		c55.07-7.83,69.14-36.61,43.14-88.71C3219.59,5617.54,3218.7,5600.68,3218.01,5583.08z"/>
	<path class="st3" d="M3218.01,5583.08c0.69,17.6,1.58,34.46,10,51.32c26,52.11,11.93,80.89-43.14,88.71
		c-20.28,2.88-41.27,0.85-61.93,0.85c-289.35,0.03-578.71,0.16-868.06-0.07c-82.15-0.07-164.8,5.63-245.23-18.13
		c-0.69-35.7-1.37-71.39-2.06-107.09c28.78-80.23,64.58-104.96,160.12-105.17c272.66-0.61,545.33-1.03,817.99,0.36
		C3073.28,5494.31,3154.59,5516.83,3218.01,5583.08z"/>
	<path class="st3" d="M2007.58,5598.67c0.69,35.7,1.37,71.39,2.06,107.09c-0.77,89.4,27.09,176.91,17.65,266.89
		c-1.57,103.35-5.77,206.75,17.48,308.83c15.15,66.48,32.68,83.13,102.59,83.25c305.24,0.54,610.5-1.42,915.71,1.52
		c67.24,0.65,113.52-29.07,131.02-84.27c42.98-135.58,122.52-263.95,94.88-415.87c7.84-47.32-14.13-97.89,15.58-142.82
		c27.87,31.47,17.11,70.93,22.12,107.13c-1.64,118.42-3.27,236.85-4.91,355.27c-25.45,59.55-9.44,122.35-14.12,183.53
		c-7.23,94.47-51.6,138.78-146.54,139.02c-275.33,0.71-550.67-0.22-826,0.57c-64.18,0.18-124.23-15.15-176.43-50.04
		c-73.37-49.03-144.73-99.55-154.35-202.15c-3.53-37.67-9.96-75.63-10.58-113.84c-2.34-145.09-4.15-290.18-6.16-435.27
		c2.13-35.79,4.27-71.59,6.4-107.38C1998.57,5600.08,2003.1,5599.6,2007.58,5598.67z"/>
	<path class="st4" d="M3326.69,5830.42c-5.01-36.2,5.74-75.65-22.12-107.13c0.34-11.2,0.68-22.4,1.02-33.6
		c8.19-12.79,19.74-12.87,27.01-1.87c36.31,54.93,85.65,57.27,141.27,37.49c-2,5.65-3.99,11.31-5.99,16.96
		c-48.43,20.19-43.19,74.1-68.36,108.9c-13.64-21.75-41.23-4.04-56.87-20.13C3337.38,5829.32,3332.06,5829.12,3326.69,5830.42z"/>
	<path class="st1" d="M3467.87,5742.27c2-5.65,3.99-11.31,5.99-16.96c59.9-17.48,82.09-82.83,136.33-107.5
		c6.41,34.73-16.36,50.8-40.66,68.2c-30.21,21.62-49.22,56.51-83.74,73.64C3479.82,5753.85,3473.84,5748.06,3467.87,5742.27z"/>
	<path class="st1" d="M3840.17,5652.99c5.68,35.7,3.54,71.38-0.37,107.04c-9.84,7.56-13.48,17.63-16.29,29.83
		c-24.12,104.85-18.65,211.36-17.42,317.41c0.52,44.97-13.95,64.05-60.95,62.54c-76.89-2.48-154.06-2.8-230.87,0.9
		c-65.55,3.16-78.55-1.36-80.74-61.75c-3.02-82.85-0.79-165.87-1.65-248.82c-0.3-28.97,6.59-52.68,35.37-65.22
		c12.19,28.55,35.24,36.37,64.31,36.08c73.64-0.73,147.34-1.88,220.93,0.29c45.04,1.33,52.67-21.56,54.13-59.99
		C3808.18,5730.13,3786.8,5680.17,3840.17,5652.99z"/>
	<path class="st1" d="M3467.25,5794.94c-28.78,12.54-35.67,36.25-35.37,65.22c0.86,82.94-1.37,165.97,1.65,248.82
		c2.2,60.39,15.2,64.91,80.74,61.75c76.81-3.71,153.98-3.38,230.87-0.9c47,1.51,61.47-17.56,60.95-62.54
		c-1.23-106.05-6.7-212.56,17.42-317.41c2.81-12.2,6.45-22.27,16.29-29.83c2.18,46.2,4.35,92.4,6.53,138.59
		c-2.12,108.48-4.24,216.96-6.35,325.44c-30.7,51.76-10.1,108.78-16.15,163.1c-4.19,37.66,3.34,81.62-39.68,99.08
		c-41.6,16.89-71.14-16.21-101.17-39.11c-9.31-7.1-17.25-15.98-26.13-23.68c-79.25-68.69-158.57-137.3-237.87-205.94
		c-28.1-120.97-15-244.13-19.46-366.36c25.17-34.8,19.93-88.71,68.36-108.9c5.97,5.79,11.95,11.58,17.92,17.37
		C3479.61,5771.41,3473.43,5783.17,3467.25,5794.94z"/>
	<path class="st0" d="M3839.98,6224.07c2.12-108.48,4.24-216.96,6.35-325.44c28.71-37.41-0.58-85.75,31.41-124.13
		c0,196.76,0,393.53,0,590.29c-2.85,58.67,9.92,122.53-53.53,161.04c-6.14-0.17-12.28-0.35-18.42-0.52
		c25.61-33.88,39.55-70.03,36.65-114.55C3838.4,6348.74,3840.51,6286.32,3839.98,6224.07z"/>
	<path class="st0" d="M3805.79,6525.31c6.14,0.17,12.28,0.35,18.42,0.52c-19.15,66.09-58.18,86.76-123.35,61.77
		c-49.78-19.1-93.2-50.19-136.1-81.43c-14.24-10.37-26.84-23.04-41.31-33.06c-99.64-69.01-99.33-68.62-163.08,34.64
		c-70.55,114.27-181.58,156.51-307.51,158.76c-221.58,3.97-443.58,8.39-664.83-1.03c-205.51-8.75-352.95-105.61-406.59-302.81
		c-21.98-80.81-3.6-164.72-9.93-246.97c0.43-108.32,0.05-216.66,1.85-324.96c0.46-27.93-10.98-59.09,14.22-83.22
		c2.01,145.09,3.82,290.19,6.16,435.27c0.62,38.21,7.05,76.17,10.58,113.84c9.62,102.6,80.98,153.12,154.35,202.15
		c52.2,34.88,112.25,50.22,176.43,50.04c275.33-0.79,550.67,0.14,826-0.57c94.94-0.24,139.31-44.55,146.54-139.02
		c4.68-61.18-11.33-123.98,14.12-183.53c1.51,35.21,0.99,70.65,5.05,105.57c4.91,42.31-17.05,88.07,15.56,126.88
		c5.55-6.51,14.4-12.24,16.15-19.65c20.25-85.82,33.69-89.44,102.31-31.93c60.35,50.58,122.25,99.37,184.68,147.36
		c25.79,19.82,55.53,33.03,89.9,29C3761.32,6546.79,3783.96,6537.66,3805.79,6525.31z M3271.12,6542.17
		c-44.4-37.77-88.33,3.82-133.16,2.67c-218.86-5.63-437.98-4.84-656.94-1.69c-118.73,1.71-234.5-6.8-345.73-51.16
		c-8.28-3.1-16.7-9.03-24.82-8.64c-11.75,0.57-10.9,11.67-6.38,18.44c13.39,20.07,32.55,33.05,53.72,45.06
		c76.39,43.33,160.76,63.53,245.58,65.52c216.37,5.09,433.13,6.86,649.32-1.11C3127.27,6608.52,3210.9,6604.27,3271.12,6542.17z"/>
	<path class="st3" d="M3288.98,5866.11c27.64,151.92-51.89,280.29-94.88,415.87c-17.5,55.2-63.78,84.92-131.02,84.27
		c-305.21-2.94-610.47-0.98-915.71-1.52c-69.91-0.12-87.44-16.77-102.59-83.25c-23.26-102.07-19.05-205.47-17.48-308.83
		c44.78,17.27,91.31,18.92,138.76,18.79c292.29-0.76,584.6-2.23,876.86,1.01c67.13,0.74,119.26-13.64,162.46-66.78
		C3226.66,5899.5,3247.64,5866.78,3288.98,5866.11z"/>
	<path class="st0" d="M3342.38,6418.14c-32.61-38.82-10.64-84.58-15.56-126.88c-4.05-34.91-3.54-70.36-5.05-105.57
		c1.64-118.42,3.27-236.85,4.91-355.27c5.38-1.3,10.7-1.1,15.96,0.61C3342.56,6026.74,3342.47,6222.44,3342.38,6418.14z"/>
	<path class="st0" d="M3342.38,6418.14c0.09-195.7,0.17-391.41,0.26-587.11c15.64,16.09,43.23-1.61,56.87,20.13
		c4.47,122.23-8.63,245.39,19.46,366.36c6.11,51.59,43.55,82.29,78.99,112.25c71.45,60.41,144.83,118.59,218.57,176.21
		c13.54,10.58,17.44,22.16,18.9,36.94c-34.36,4.02-64.11-9.18-89.9-29c-62.43-48-124.33-96.78-184.68-147.36
		c-68.62-57.51-82.06-53.89-102.31,31.93C3356.78,6405.9,3347.93,6411.63,3342.38,6418.14z"/>
	<path class="st0" d="M3735.43,6542.92c-1.46-14.78-5.36-26.37-18.9-36.94c-73.74-57.62-147.11-115.8-218.57-176.21
		c-35.44-29.96-72.88-60.66-78.99-112.25c79.3,68.63,158.62,137.25,237.87,205.94c8.88,7.7,16.82,16.58,26.13,23.68
		c30.03,22.9,59.57,56,101.17,39.11c43.03-17.46,35.49-61.43,39.68-99.08c6.05-54.32-14.56-111.34,16.15-163.1
		c0.52,62.25-1.58,124.67,2.46,186.68c2.9,44.52-11.04,80.67-36.65,114.55C3783.96,6537.66,3761.32,6546.79,3735.43,6542.92z"/>
	<path class="st0" d="M3271.12,6542.17c-60.22,62.11-143.85,66.35-218.41,69.09c-216.2,7.96-432.95,6.2-649.32,1.11
		c-84.82-1.99-169.19-22.19-245.58-65.52c-21.17-12.01-40.32-24.99-53.72-45.06c-4.52-6.77-5.37-17.87,6.38-18.44
		c8.11-0.4,16.53,5.53,24.82,8.64c52,64.8,127.19,67.75,199.44,68.36c265.9,2.27,531.83,0.58,797.75,1.13
		C3179.84,6561.58,3226.57,6560.67,3271.12,6542.17z"/>
	<path class="st0" d="M3271.12,6542.17c-44.55,18.5-91.28,19.41-138.65,19.31c-265.92-0.55-531.85,1.14-797.75-1.13
		c-72.25-0.62-147.43-3.56-199.44-68.36c111.23,44.36,227,52.87,345.73,51.16c218.96-3.14,438.08-3.93,656.94,1.69
		C3182.79,6545.99,3226.72,6504.4,3271.12,6542.17z"/>
	<g>
		<path class="st5" d="M11161.38,5966.24c-114.85,291.54-230.14,582.92-344.29,874.74c-32.95,84.24-31.48,85.82-118.54,84.71
			c-52.93-0.68-117.95,20.86-155.43-9.46c-35.7-28.88-44.19-92.1-63.23-140.77c-101.4-259.17-202.5-518.46-303.08-777.95
			c-5.44-14.03-11.81-25.81-35.5-47.05c0,31.5,0,52.31,0,73.12c0,278.94,0.11,557.87-0.07,836.81c-0.06,85.28,7.6,73.74-77.3,74.25
			c-80.08,0.48-160.22-1.64-240.22,0.84c-39.33,1.22-57.42-4.87-57.25-51.84c1.79-501.48,1.46-1002.98,0.41-1504.46
			c-0.08-37.89,10.06-51.41,49.52-50.7c124.53,2.24,249.2,3.28,373.66-0.5c44.49-1.35,61.32,17.35,76.12,54.07
			c87.77,217.71,177.19,434.76,266.41,651.88c40.24,97.93,81.3,195.52,129.05,310.21c74.96-180.67,142.33-342.45,209.24-504.42
			c65.07-157.5,131.17-314.6,193.05-473.34c10.73-27.54,21.06-37.49,48.63-37.35c133.46,0.7,266.98,2.27,400.38-0.6
			c59.4-1.28,49,36.74,49.02,71.16c0.15,278.94,0.09,557.87,0.09,836.81c0,207.72,0.18,415.44-0.1,623.15
			c-0.1,74.54-0.61,74.82-77.96,75.12c-83.05,0.33-166.19-2.31-249.11,1c-46.84,1.87-59.76-13.79-59.42-60.22
			c2.05-278.92,1.01-557.86,1.01-836.8c0-23.57,0-47.14,0-70.72C11171.46,5967.36,11166.42,5966.8,11161.38,5966.24z"/>
		<path class="st5" d="M8005.01,6128.82c0.96-205.02,41.78-398.76,178.76-558.89c213.86-249.99,491.99-304.03,796.98-233.25
			c298.01,69.16,492.68,307.93,539.81,613.43c25.72,166.74,20.84,328.52-27.37,488.36c-75.56,250.52-242.55,419.62-492.1,487.82
			c-270.53,73.94-528.93,34.52-746.96-156.95c-131.55-115.53-203.38-265.49-232.56-439.06
			C8010.25,6262.85,8006.23,6196.49,8005.01,6128.82z M8761.29,6614.43c128.54,4.65,260.59-49.27,318.4-192.83
			c83.54-207.43,83.21-411.85-20.51-616.59c-96.12-189.75-449.85-216.77-573.68-6.72c-101.47,172.11-104.37,354.49-54.36,544.59
			C8478.97,6524.65,8605.78,6617.53,8761.29,6614.43z"/>
		<path class="st5" d="M7792.55,6138.73c-1.58,194.9-39.47,378.63-162.75,537.3c-157.67,202.93-371.03,284.11-620.23,281.42
			c-182.23-1.97-346.98-57-486.93-179.2c-140.44-122.63-213.24-277.71-245.02-459.84c-29.04-166.39-21.89-328.89,27.06-488.21
			c90.25-293.68,293.24-466.47,594.37-511.67c237.64-35.67,460.23,13.52,644.49,178.74c127.91,114.69,201.11,260.76,232.17,430.39
			C7788.61,5998.05,7793.85,6067.62,7792.55,6138.73z M7028.91,6615.79c164-0.7,278.99-85.54,334.2-251.32
			c52.87-158.74,46.86-321.57-4.18-476.42c-37.22-112.95-112.9-203.31-245.39-227.72c-209.1-38.53-366.8,54.69-426.2,259.37
			c-36.81,126.86-43.04,257.27-12.72,384.11C6729.92,6535.11,6843.3,6609.08,7028.91,6615.79z"/>
		<rect x="4747.35" y="5304.48" class="st5" width="1407.64" height="344"/>
		<rect x="4747.35" y="5304.48" class="st5" width="1407.64" height="344"/>
		<polygon class="st5" points="5249.51,5648.48 5637,5648.48 5637,6428.73 5245.55,6441.92 		"/>
		<polygon class="st5" points="5245.55,6441.92 5249.51,6929.59 5637,6929.59 5637,6428.73 		"/>
	</g>
	<path class="st3" d="M1993.99,5600.13c7.04-15.54,18.55-36.08,37.26-56.43c10.69-11.64,21.44-20.7,30.97-27.68
		c13.28,21.77,18.47,29.59,19.11,29.65c0,0,0.01,0,0.01,0.01c0.71,0.44-26.41,45.16-33.62,49.42
		C2040.47,5599.38,1993.99,5600.13,1993.99,5600.13z"/>
</g>
</svg>
