<?xml version="1.0" encoding="UTF-8"?>
<svg version="1.1" xmlns="http://www.w3.org/2000/svg" width="527" height="201">
<path d="M0 0 C173.91 0 347.82 0 527 0 C527 66.33 527 132.66 527 201 C353.09 201 179.18 201 0 201 C0 134.67 0 68.34 0 0 Z " fill="#1C1F2E" transform="translate(0,0)"/>
<path d="M0 0 C1.29768311 -0.0004985 2.59536621 -0.00099701 3.93237305 -0.00151062 C6.66564744 -0.00142145 9.39862353 0.0088944 12.13183594 0.02709961 C15.6115314 0.04978487 19.09079229 0.05032488 22.57054138 0.04358196 C25.92207584 0.03941124 29.27348038 0.05143283 32.625 0.0625 C33.8627417 0.06158859 35.1004834 0.06067719 36.37573242 0.05973816 C46.79798666 0.14453858 55.57599736 0.76712333 63.3125 8.36328125 C70.01320601 16.4955921 69.62144099 27.97748058 69.61328125 37.94921875 C69.61756638 39.12739166 69.6218515 40.30556458 69.62626648 41.5194397 C69.63198051 43.99863038 69.63253179 46.47783781 69.62817383 48.95703125 C69.62501505 52.7203471 69.64850728 56.48287486 69.67382812 60.24609375 C69.67610174 62.66796777 69.67680432 65.08984388 69.67578125 67.51171875 C69.684991 68.62147064 69.69420074 69.73122253 69.70368958 70.87460327 C69.65580956 79.08387706 69.24512334 88.89527304 64.25 95.80078125 C57.59592147 101.60540294 50.26931742 104.46616443 41.50927734 104.52441406 C39.75627823 104.53882538 39.75627823 104.53882538 37.96786499 104.55352783 C36.07724838 104.55990265 36.07724838 104.55990265 34.1484375 104.56640625 C32.19485825 104.57495636 32.19485825 104.57495636 30.20181274 104.5836792 C27.44296887 104.59417328 24.68415398 104.60002539 21.92529297 104.60351562 C18.41524064 104.60897701 14.9055808 104.63296051 11.39565086 104.66148758 C8.0215885 104.68476989 4.6475759 104.68657466 1.2734375 104.69140625 C0.02517181 104.70375305 -1.22309387 104.71609985 -2.50918579 104.7288208 C-11.97664539 104.70489584 -21.12952586 104.00163632 -28.23205566 97.12084961 C-34.60936723 89.41972306 -34.27979415 80.42419716 -34.21875 70.92578125 C-34.22145064 69.43562569 -34.22533779 67.94547186 -34.23034668 66.45532227 C-34.23621499 63.34536824 -34.22776607 60.23587647 -34.20898438 57.12597656 C-34.18619568 53.16176039 -34.19933328 49.19862782 -34.22327423 45.23445129 C-34.23780521 42.16125488 -34.23309313 39.08831068 -34.22276306 36.0151062 C-34.22011585 34.55443184 -34.22329403 33.09373375 -34.23268127 31.63308716 C-34.277044 22.79258535 -34.17347718 14.65183439 -28.19665527 7.60571289 C-20.20186459 -0.01576898 -10.5062404 -0.07817448 0 0 Z " fill="#5B9CF8" transform="translate(85.6875,39.63671875)"/>
<path d="M0 0 C1.84604903 1.57404664 3.38229969 3.18008715 5 5 C5.556875 4.236875 6.11375 3.47375 6.6875 2.6875 C10.88259885 -2.18788515 14.97240426 -3.70317689 21.1875 -4.3125 C27.4145821 -3.80208343 32.84759893 -1.74996483 37 3.0625 C39.48027455 6.70540324 40.12557194 9.17081862 40.11352539 13.47143555 C40.11341209 14.82249641 40.11341209 14.82249641 40.11329651 16.20085144 C40.10813522 17.16968765 40.10297394 18.13852386 40.09765625 19.13671875 C40.0962413 20.13129593 40.09482635 21.12587311 40.09336853 22.15058899 C40.08776761 25.32958982 40.07521496 28.50852043 40.0625 31.6875 C40.05748512 33.84179586 40.05292219 35.99609282 40.04882812 38.15039062 C40.03779787 43.43362084 40.02053262 48.71679851 40 54 C33.73 54 27.46 54 21 54 C20.95101562 51.20789063 20.90203125 48.41578125 20.8515625 45.5390625 C20.79758816 42.84174124 20.74026678 40.14451053 20.68261719 37.44726562 C20.64428023 35.56940424 20.60943573 33.69146824 20.578125 31.81347656 C20.53257637 29.11756679 20.47456625 26.42217288 20.4140625 23.7265625 C20.40251129 22.88380768 20.39096008 22.04105286 20.37905884 21.17276001 C20.45806819 16.60979043 20.45806819 16.60979043 18 13 C12.85181965 12.30642454 12.85181965 12.30642454 8.4037323 14.28340149 C5.9911193 17.23374173 6.51691738 20.94985985 6.48828125 24.60546875 C6.47033005 25.44467361 6.45237885 26.28387848 6.43388367 27.14851379 C6.37971437 29.82812479 6.34586427 32.50755702 6.3125 35.1875 C6.27933271 37.00458221 6.2448436 38.8216408 6.20898438 40.63867188 C6.12149533 45.09247457 6.06148582 49.54545842 6 54 C0.06 54 -5.88 54 -12 54 C-12.02578125 51.21949219 -12.0515625 48.43898437 -12.078125 45.57421875 C-12.11652976 42.88344158 -12.16169493 40.19285708 -12.20751953 37.50219727 C-12.23575737 35.63119696 -12.2569579 33.76007674 -12.27099609 31.88891602 C-12.29238717 29.20005779 -12.33901545 26.51264562 -12.390625 23.82421875 C-12.39185364 22.98662521 -12.39308228 22.14903168 -12.39434814 21.28605652 C-12.4702157 16.699606 -12.4702157 16.699606 -14.84667969 12.94067383 C-17.93182617 11.59293353 -19.81513783 12.05131765 -23 13 C-24.71799943 14.26306469 -24.71799943 14.26306469 -26 16 C-26.33131881 18.93397683 -26.48870106 21.66709481 -26.51171875 24.60546875 C-26.52966995 25.44467361 -26.54762115 26.28387848 -26.56611633 27.14851379 C-26.62028563 29.82812479 -26.65413573 32.50755702 -26.6875 35.1875 C-26.72066729 37.00458221 -26.7551564 38.8216408 -26.79101562 40.63867188 C-26.87850467 45.09247457 -26.93851418 49.54545842 -27 54 C-33.27 54 -39.54 54 -46 54 C-46 35.19 -46 16.38 -46 -3 C-40.06 -3 -34.12 -3 -28 -3 C-27.67 -0.36 -27.34 2.28 -27 5 C-26.63648438 4.51789063 -26.27296875 4.03578125 -25.8984375 3.5390625 C-18.73065616 -5.46661149 -9.53725056 -6.2451034 0 0 Z " fill="#F8F8F9" transform="translate(425,76)"/>
<path d="M0 0 C4.1003994 2.91474174 6.90846717 5.90039269 9.3125 10.3125 C9.63089844 10.89515625 9.94929688 11.4778125 10.27734375 12.078125 C13.51867109 19.18813336 13.66532694 28.26530995 11.125 35.625 C10.55370841 36.86978672 9.94869115 38.09959898 9.3125 39.3125 C8.83683594 40.32763672 8.83683594 40.32763672 8.3515625 41.36328125 C4.71382205 48.21306912 -1.44073577 51.89691192 -8.6875 54.3125 C-18.44701904 55.04159961 -27.55431156 55.57001126 -35.6875 49.3125 C-41.69899025 43.90472778 -45.30724345 36.7793111 -45.99609375 28.6875 C-46.37692389 19.26736364 -45.92242317 11.93000742 -39.6875 4.3125 C-29.09992658 -6.45264278 -12.65800972 -7.83292681 0 0 Z " fill="#F8F9F9" transform="translate(358.6875,76.6875)"/>
<path d="M0 0 C5.81286211 4.00247729 9.53989542 9.05718626 11.76953125 15.74609375 C12.77242503 25.7610672 13.34963223 36.54088308 6.76953125 44.74609375 C1.05650715 51.11690741 -4.45203704 54.29843015 -12.94140625 55.09375 C-21.24081442 55.51361055 -28.41988566 54.9608391 -35.23046875 49.74609375 C-40.8177043 44.57312091 -45.20561939 38.95296326 -45.69921875 31.13671875 C-45.73353639 29.4234891 -45.74309406 27.70962057 -45.73046875 25.99609375 C-45.72474854 25.10519043 -45.71902832 24.21428711 -45.71313477 23.29638672 C-45.47714286 14.61474519 -43.36955524 8.52952095 -37.10546875 2.37109375 C-26.16781471 -5.98043385 -11.8995945 -6.68961442 0 0 Z " fill="#F8F9F9" transform="translate(294.23046875,76.25390625)"/>
<path d="M0 0 C21.45 0 42.9 0 65 0 C65 4.95 65 9.9 65 15 C57.08 15 49.16 15 41 15 C41 35.13 41 55.26 41 76 C35.06 76 29.12 76 23 76 C23 55.87 23 35.74 23 15 C15.41 15 7.82 15 0 15 C0 10.05 0 5.1 0 0 Z " fill="#FBFBFC" transform="translate(186,54)"/>
<path d="M0 0 C1.20204575 -0.00786278 1.20204575 -0.00786278 2.42837524 -0.0158844 C4.12118371 -0.02229788 5.81403679 -0.02097629 7.50683594 -0.01245117 C10.08610225 -0.00395716 12.66314079 -0.03268297 15.2421875 -0.06445312 C16.89062434 -0.0660658 18.53906508 -0.06548633 20.1875 -0.0625 C21.33622086 -0.07935097 21.33622086 -0.07935097 22.50814819 -0.09654236 C28.64636735 -0.01738093 32.15742239 1.90262758 36.58325195 6.26269531 C38.19013471 9.3138167 38.06472659 11.73312266 38.01953125 15.16796875 C38.0050293 17.11123047 38.0050293 17.11123047 37.99023438 19.09375 C37.96517033 20.45703729 37.93977552 21.82031854 37.9140625 23.18359375 C37.89900768 24.56248559 37.88532067 25.9413931 37.87304688 27.3203125 C37.83768159 30.6918029 37.78832154 34.06250029 37.7265625 37.43359375 C34.44840128 39.07267436 30.8157435 38.63955626 27.2109375 38.671875 C26.36235168 38.67994675 25.51376587 38.68801849 24.63946533 38.69633484 C22.84055628 38.71017816 21.04162093 38.72089921 19.24267578 38.72875977 C16.50111522 38.74593989 13.76077094 38.78981859 11.01953125 38.83398438 C9.27084219 38.84411436 7.52214289 38.8526295 5.7734375 38.859375 C4.95760193 38.87688309 4.14176636 38.89439117 3.3012085 38.91242981 C-2.01447022 38.89233501 -5.08195067 38.00660449 -9.2734375 34.43359375 C-12.56042348 27.5465755 -12.48619999 19.15460038 -12.5859375 11.62109375 C-12.61494141 10.87150391 -12.64394531 10.12191406 -12.67382812 9.34960938 C-12.73647778 3.95691988 -12.73647778 3.95691988 -10.76391602 1.72753906 C-7.23801023 -0.10436964 -3.88265569 -0.01480534 0 0 Z " fill="#E1E9FB" transform="translate(80.2734375,71.56640625)"/>
<path d="M0 0 C0.33 0 0.66 0 1 0 C1.06731323 1.08099976 1.06731323 1.08099976 1.13598633 2.18383789 C1.34848581 5.47771222 1.58032176 8.76995664 1.8125 12.0625 C1.88275391 13.19623047 1.95300781 14.32996094 2.02539062 15.49804688 C2.46748006 21.56351394 2.85664054 26.71710449 6 32 C8.80161304 33.76794646 10.93264468 34.24732935 14.21777344 34.22705078 C15.03832214 34.22689972 15.85887085 34.22674866 16.70428467 34.22659302 C17.58046448 34.21627045 18.45664429 34.20594788 19.359375 34.1953125 C20.26375305 34.1924826 21.1681311 34.18965271 22.09991455 34.18673706 C24.98341195 34.17555782 27.86659675 34.15045733 30.75 34.125 C32.70702676 34.11496728 34.66405839 34.10584194 36.62109375 34.09765625 C41.41427931 34.07732892 46.20679046 34.03817601 51 34 C51 25.09 51 16.18 51 7 C51.99 7.66 52.98 8.32 54 9 C54.33361437 11.52129801 54.51223193 13.84723405 54.5625 16.375 C54.58137976 22.50589703 54.58137976 22.50589703 57 28 C58.65438613 28.69658363 60.32254318 29.36096883 62 30 C64.3125 32 64.3125 32 66 34 C66 34.66 66 35.32 66 36 C67.32 35.67 68.64 35.34 70 35 C70.33 23.78 70.66 12.56 71 1 C71.33 1 71.66 1 72 1 C72.07413521 6.07198888 72.12859451 11.14366268 72.16479492 16.21606445 C72.17988516 17.94170627 72.20035975 19.66730972 72.22631836 21.39282227 C72.26269209 23.87265488 72.27972359 26.35198064 72.29296875 28.83203125 C72.30845261 29.60400345 72.32393646 30.37597565 72.33988953 31.17134094 C72.34156761 36.5073175 72.34156761 36.5073175 70.609375 39.00585938 C67.52648127 40.9102197 64.41599234 39.61599862 61 39 C61 38.34 61 37.68 61 37 C56.56695104 37.492561 55.04375599 38.86400898 52 42 C47.6349777 44.69331163 45.86615529 45.0220775 41 44 C38.57794354 43.9194438 36.15384395 43.89237101 33.73046875 43.90234375 C33.04946609 43.9037587 32.36846344 43.90517365 31.66682434 43.90663147 C29.50700353 43.91219702 27.34728911 43.92474297 25.1875 43.9375 C23.71679838 43.94251946 22.24609512 43.94708159 20.77539062 43.95117188 C17.1835596 43.96215512 13.5917902 43.97939578 10 44 C9.505 42.515 9.505 42.515 9 41 C6.69 40.67 4.38 40.34 2 40 C2 38.68 2 37.36 2 36 C1.34 36 0.68 36 0 36 C-0.87470757 32.98152056 -1.12858374 30.28678154 -1.1328125 27.1484375 C-1.13410156 26.21386719 -1.13539062 25.27929688 -1.13671875 24.31640625 C-1.13285156 23.34574219 -1.12898438 22.37507813 -1.125 21.375 C-1.12886719 20.42753906 -1.13273437 19.48007813 -1.13671875 18.50390625 C-1.1282023 12.27837871 -0.74115741 6.18081383 0 0 Z " fill="#557ECC" transform="translate(67,75)"/>
<path d="M0 0 C3.43166846 2.20607258 4.91525046 6.17754924 6 10 C6.95647001 17.21816037 5.50415657 22.51206764 1.25 28.4375 C-2.06474677 30.73940748 -4.06002321 30.691224 -8 30 C-11.02198795 27.53449065 -12.76505657 24.70483028 -14 21 C-14.94718494 7.35689385 -14.94718494 7.35689385 -11 2 C-7.58021265 -1.78619314 -4.74726571 -1.20839491 0 0 Z " fill="#212431" transform="translate(346,87)"/>
<path d="M0 0 C3.7130032 1.08014639 5.15344262 1.92530737 7.4375 5 C8.72554137 8.70852181 8.67614746 12.48025022 8.75 16.375 C8.78738281 17.66148438 8.82476562 18.94796875 8.86328125 20.2734375 C8.37188001 24.57432544 7.1473512 26.67175975 4.4375 30 C1.34576248 31.54586876 -1.15679552 31.29359521 -4.5625 31 C-7.96809295 28.51483758 -9.26295145 25.94326536 -10.5625 22 C-10.828125 18.84375 -10.828125 18.84375 -10.8125 15.5 C-10.81765625 14.3965625 -10.8228125 13.293125 -10.828125 12.15625 C-10.44944679 7.6566618 -9.43242255 4.94448734 -6.375 1.625 C-3.5625 0 -3.5625 0 0 0 Z " fill="#1F222F" transform="translate(278.5625,86)"/>
<path d="M0 0 C0 11.88 0 23.76 0 36 C-2.475 36.495 -2.475 36.495 -5 37 C-5.721875 36.113125 -6.44375 35.22625 -7.1875 34.3125 C-8.96129606 32.16474123 -10.72081872 30.31194577 -12.75 28.375 C-16.94624229 23.94563314 -16.56793109 18.16411924 -16.5546875 12.27734375 C-15.63274165 6.83007214 -12.31810372 4.14569315 -8 1 C-5 -1 -5 -1 0 0 Z " fill="#D8E2F9" transform="translate(138,74)"/>
<path d="M0 0 C0.33 0 0.66 0 1 0 C1.07656573 7.61305236 1.128815 15.22600404 1.16479492 22.83935547 C1.17980712 25.4250052 1.20022313 28.01062978 1.22631836 30.59619141 C1.26303545 34.32981604 1.27980274 38.06310166 1.29296875 41.796875 C1.30845261 42.93799744 1.32393646 44.07911987 1.33988953 45.25482178 C1.34160058 53.56294836 0.9961155 63.4362581 -4.0625 70.4375 C-10.71657853 76.24212169 -18.04318258 79.10288318 -26.80322266 79.16113281 C-28.55622177 79.17554413 -28.55622177 79.17554413 -30.34463501 79.19024658 C-32.23525162 79.1966214 -32.23525162 79.1966214 -34.1640625 79.203125 C-36.11764175 79.21167511 -36.11764175 79.21167511 -38.11068726 79.22039795 C-40.86953113 79.23089203 -43.62834602 79.23674414 -46.38720703 79.24023438 C-49.89725936 79.24569576 -53.4069192 79.26967926 -56.91684914 79.29820633 C-60.2909115 79.32148864 -63.6649241 79.32329341 -67.0390625 79.328125 C-68.28732819 79.3404718 -69.53559387 79.3528186 -70.82168579 79.36553955 C-80.52197942 79.3410262 -89.28887864 78.54233964 -96.58984375 71.62109375 C-98.6391646 69.26522629 -99.93610784 66.92570344 -101 64 C-100.67 63.34 -100.34 62.68 -100 62 C-97.69 62.33 -95.38 62.66 -93 63 C-93 63.66 -93 64.32 -93 65 C-92.01 65.33 -91.02 65.66 -90 66 C-90.66 67.98 -91.32 69.96 -92 72 C-91.34 72 -90.68 72 -90 72 C-89.67 72.66 -89.34 73.32 -89 74 C-77.86398286 76.19285747 -65.55601216 75.22053704 -54.26123047 75.24023438 C-50.87573195 75.24999789 -47.49082705 75.2811314 -44.10546875 75.3125 C-41.92187854 75.31902697 -39.73828407 75.32427864 -37.5546875 75.328125 C-36.55855438 75.3404718 -35.56242126 75.3528186 -34.53610229 75.36553955 C-27.61501401 75.34386364 -21.58104418 74.12141446 -15 72 C-15 72.66 -15 73.32 -15 74 C-14.566875 73.525625 -14.13375 73.05125 -13.6875 72.5625 C-12 71 -12 71 -9 70 C-9.33 69.01 -9.66 68.02 -10 67 C-8.02 66.34 -6.04 65.68 -4 65 C-0.39065777 51.47019455 -0.44967691 37.98250265 -0.3125 24.0625 C-0.27926098 21.72198688 -0.24476547 19.38149126 -0.20898438 17.04101562 C-0.12484345 11.36079736 -0.05618587 5.68056003 0 0 Z " fill="#2075DF" transform="translate(154,65)"/>
<path d="M0 0 C2.18017047 0.11915314 4.36368158 0.17919996 6.546875 0.2109375 C7.88022028 0.23902165 9.21355344 0.26768621 10.546875 0.296875 C12.64452574 0.33800541 14.74195399 0.37489848 16.83984375 0.40136719 C18.86766173 0.42915864 20.89445754 0.47504052 22.921875 0.5234375 C24.13456055 0.54325684 25.34724609 0.56307617 26.59667969 0.58349609 C32.20979849 1.27043875 36.43221302 3.60887757 40 8 C40 8.99 40 9.98 40 11 C40.99 11 41.98 11 43 11 C43.33 10.34 43.66 9.68 44 9 C45.66666667 7.66666667 47.33333333 6.33333333 49 5 C49.33 4.34 49.66 3.68 50 3 C51.27875 2.938125 52.5575 2.87625 53.875 2.8125 C54.59429687 2.77769531 55.31359375 2.74289063 56.0546875 2.70703125 C56.69664062 2.80371094 57.33859375 2.90039062 58 3 C60 6 60 6 60 10 C60.66 10 61.32 10 62 10 C62 12.97 62 15.94 62 19 C60.40964498 15.81928996 59.35151732 13.12342347 58.375 9.75 C57.98441406 8.41195312 57.98441406 8.41195312 57.5859375 7.046875 C57.39257812 6.37140625 57.19921875 5.6959375 57 5 C52.86330684 5.52070263 50.78546392 6.6730794 47.75 9.5 C47.06421875 10.1290625 46.3784375 10.758125 45.671875 11.40625 C43.21992876 13.48555475 43.21992876 13.48555475 42.796875 16.66015625 C42.70200686 23.54600187 43.05783227 28.74789357 46 35 C43 34 43 34 41.82421875 32.38671875 C40.7068105 29.15100103 40.82991819 26.22994906 40.8125 22.8125 C40.59301267 16.41324221 39.12737325 12.46609752 34.88671875 7.63671875 C30.44951986 3.78747168 26.40798042 3.70443535 20.69140625 3.734375 C19.88767075 3.73246155 19.08393524 3.7305481 18.25584412 3.72857666 C16.55882453 3.72721792 14.86179444 3.73089266 13.16479492 3.73925781 C10.57511887 3.74994791 7.98613871 3.73935942 5.39648438 3.7265625 C3.74479014 3.72788442 2.09309634 3.7304475 0.44140625 3.734375 C-0.71505653 3.72830231 -0.71505653 3.72830231 -1.8948822 3.72210693 C-6.00444285 3.7577203 -9.36369666 3.9938242 -13 6 C-13.88693303 8.04105639 -13.88693303 8.04105639 -14 10 C-14 7.69 -14 5.38 -14 3 C-3.18032787 -1.59016393 -3.18032787 -1.59016393 0 0 Z " fill="#769ADD" transform="translate(80,69)"/>
<path d="M0 0 C0.33 0 0.66 0 1 0 C1.07656573 7.61305236 1.128815 15.22600404 1.16479492 22.83935547 C1.17980712 25.4250052 1.20022313 28.01062978 1.22631836 30.59619141 C1.26303545 34.32981604 1.27980274 38.06310166 1.29296875 41.796875 C1.30845261 42.93799744 1.32393646 44.07911987 1.33988953 45.25482178 C1.34160058 53.56294836 0.9961155 63.4362581 -4.0625 70.4375 C-10.78192332 76.2991246 -18.12072823 79.13209931 -26.96191406 79.11352539 C-28.16285706 79.11344986 -29.36380005 79.11337433 -30.60113525 79.11329651 C-32.53880768 79.10555458 -32.53880768 79.10555458 -34.515625 79.09765625 C-35.85512235 79.09579017 -37.19462038 79.09436716 -38.53411865 79.09336853 C-42.05222472 79.08955835 -45.57028921 79.07974091 -49.08837891 79.06866455 C-52.68130939 79.05841817 -56.27424661 79.053864 -59.8671875 79.04882812 C-66.91147529 79.03811725 -73.95573493 79.02105887 -81 79 C-81 78.67 -81 78.34 -81 78 C-79.97642647 77.9845388 -79.97642647 77.9845388 -78.93217468 77.96876526 C-71.84343768 77.86076179 -64.75482937 77.74615869 -57.66625977 77.62768555 C-55.01915168 77.58431696 -52.37201528 77.54264332 -49.72485352 77.50268555 C-45.924555 77.44502977 -42.12439932 77.38132156 -38.32421875 77.31640625 C-37.13664474 77.29969376 -35.94907074 77.28298126 -34.72550964 77.26576233 C-33.0741375 77.2358445 -33.0741375 77.2358445 -31.3894043 77.20532227 C-30.41899704 77.18977798 -29.44858978 77.1742337 -28.44877625 77.15821838 C-25.86204325 77.09534871 -25.86204325 77.09534871 -23 76 C-21.60560336 75.93334624 -20.20830125 75.91461801 -18.8125 75.9375 C-17.554375 75.958125 -16.29625 75.97875 -15 76 C-15 75.34 -15 74.68 -15 74 C-13.02709413 71.65130253 -11.99693138 70.99897713 -9 70 C-9.33 69.01 -9.66 68.02 -10 67 C-8.02 66.34 -6.04 65.68 -4 65 C-0.39065777 51.47019455 -0.44967691 37.98250265 -0.3125 24.0625 C-0.27926098 21.72198688 -0.24476547 19.38149126 -0.20898438 17.04101562 C-0.12484345 11.36079736 -0.05618587 5.68056003 0 0 Z " fill="#245BA4" transform="translate(154,65)"/>
<path d="M0 0 C0.33 0 0.66 0 1 0 C1.07413521 5.07198888 1.12859451 10.14366268 1.16479492 15.21606445 C1.17988516 16.94170627 1.20035975 18.66730972 1.22631836 20.39282227 C1.26269209 22.87265488 1.27972359 25.35198064 1.29296875 27.83203125 C1.30845261 28.60400345 1.32393646 29.37597565 1.33988953 30.17134094 C1.34156369 35.49484818 1.34156369 35.49484818 -0.36206055 38.0144043 C-2 39 -2 39 -4.5 38.9375 C-7.52501045 37.80312108 -8.41086632 36.78098395 -10 34 C-10.6875 31.75 -10.6875 31.75 -11 30 C-11.78375 29.855625 -12.5675 29.71125 -13.375 29.5625 C-16 29 -16 29 -18 28 C-17.938125 28.78375 -17.87625 29.5675 -17.8125 30.375 C-17.874375 31.24125 -17.93625 32.1075 -18 33 C-18.99 33.66 -19.98 34.32 -21 35 C-20.67 25.43 -20.34 15.86 -20 6 C-18.515 6.99 -18.515 6.99 -17 8 C-16.66638563 10.52129801 -16.48776807 12.84723405 -16.4375 15.375 C-16.41862024 21.50589703 -16.41862024 21.50589703 -14 27 C-12.34561387 27.69658363 -10.67745682 28.36096883 -9 29 C-6.6875 31 -6.6875 31 -5 33 C-5 33.66 -5 34.32 -5 35 C-3.02 34.505 -3.02 34.505 -1 34 C-0.67 22.78 -0.34 11.56 0 0 Z " fill="#34559B" transform="translate(138,76)"/>
<path d="M0 0 C1.12792969 0.65194336 2.25585938 1.30388672 3.41796875 1.97558594 C8.14369971 4.32833597 12.10699968 4.52300982 17.3125 4.390625 C18.16682617 4.38496521 19.02115234 4.37930542 19.90136719 4.37347412 C22.60150753 4.3512739 25.30026807 4.3011112 28 4.25 C29.84242861 4.22991374 31.68487824 4.21166671 33.52734375 4.1953125 C38.01875215 4.15146318 42.50914302 4.08255252 47 4 C45 7 45 7 42 8 C36.01018083 8.52169393 30.00693659 8.76038032 24 9 C23.20432617 9.03544922 22.40865234 9.07089844 21.58886719 9.10742188 C19.30920518 9.20039186 17.03095186 9.26170548 14.75 9.3125 C13.71528564 9.35709351 13.71528564 9.35709351 12.65966797 9.40258789 C7.64902495 9.46105155 4.81710599 8.19639119 1 5 C0.125 2.25 0.125 2.25 0 0 Z " fill="#1D489A" transform="translate(70,107)"/>
<path d="M0 0 C-3.3509205 2.233947 -5.18819956 2.36274239 -9.0625 2.65625 C-11.31880605 2.9230571 -11.31880605 2.9230571 -14 5 C-14 4.34 -14 3.68 -14 3 C-15.37562854 4.28965176 -16.70766393 5.62689293 -18 7 C-18 7.66 -18 8.32 -18 9 C-19.0828125 9.556875 -19.0828125 9.556875 -20.1875 10.125 C-23.93123694 12.62082462 -26.24345708 15.8512129 -28 20 C-27.67 20.99 -27.34 21.98 -27 23 C-27.59793673 25.35188447 -28.25881795 27.68925595 -29 30 C-29.33 30 -29.66 30 -30 30 C-30.50268058 20.96571291 -30.6022227 13.28572112 -24.421875 6.1875 C-17.25498342 -0.52742544 -9.34168972 -0.27610906 0 0 Z " fill="#92A9DC" transform="translate(82,41)"/>
<path d="M0 0 C3.93202228 7.86404457 4.25626415 15.31549253 4 24 C3.90941879 26.91076672 3.90941879 26.91076672 4.4375 29.375 C3.91262515 32.5242491 3.28173933 32.92583012 0.8125 34.8125 C-2.21544513 36.78189521 -4.32645043 37.55659842 -8 37 C-8 36.34 -8 35.68 -8 35 C-4.535 34.505 -4.535 34.505 -1 34 C-0.67 22.78 -0.34 11.56 0 0 Z " fill="#377ADC" transform="translate(139,80)"/>
<path d="M0 0 C2.22682173 0.13106542 4.45724401 0.20283447 6.6875 0.24609375 C8.03906925 0.27902078 9.3906316 0.31223261 10.7421875 0.34570312 C12.87527893 0.39319812 15.00834005 0.43765307 17.14160156 0.47680664 C19.1988595 0.51644232 21.25555184 0.56799284 23.3125 0.62109375 C24.54613281 0.6461499 25.77976563 0.67120605 27.05078125 0.69702148 C30 1 30 1 32 3 C30.221698 3.029729 30.221698 3.029729 28.4074707 3.06005859 C23.99970633 3.13625789 19.5922659 3.22495323 15.18481445 3.31738281 C13.27895514 3.35561339 11.37302513 3.39047655 9.46704102 3.421875 C6.72386447 3.46765422 3.98117212 3.5256273 1.23828125 3.5859375 C-0.03543587 3.60326431 -0.03543587 3.60326431 -1.33488464 3.62094116 C-5.59194576 3.72661451 -9.19210786 3.86403774 -13 6 C-13.88693303 8.04105639 -13.88693303 8.04105639 -14 10 C-14 7.69 -14 5.38 -14 3 C-3.18032787 -1.59016393 -3.18032787 -1.59016393 0 0 Z " fill="#749ADA" transform="translate(80,69)"/>
<path d="M0 0 C0.33 0 0.66 0 1 0 C1.01458252 0.76554199 1.02916504 1.53108398 1.04418945 2.31982422 C1.11934702 5.83868569 1.21578236 9.3566677 1.3125 12.875 C1.33505859 14.07898438 1.35761719 15.28296875 1.38085938 16.5234375 C1.5894616 29.14894195 1.5894616 29.14894195 7.6875 39.625 C8.450625 40.07875 9.21375 40.5325 10 41 C6.04 40.505 6.04 40.505 2 40 C2 38.68 2 37.36 2 36 C1.34 36 0.68 36 0 36 C-0.87470757 32.98152056 -1.12858374 30.28678154 -1.1328125 27.1484375 C-1.13410156 26.21386719 -1.13539062 25.27929688 -1.13671875 24.31640625 C-1.13285156 23.34574219 -1.12898438 22.37507813 -1.125 21.375 C-1.12886719 20.42753906 -1.13273437 19.48007813 -1.13671875 18.50390625 C-1.1282023 12.27837871 -0.74115741 6.18081383 0 0 Z " fill="#3B6FC2" transform="translate(67,75)"/>
<path d="M0 0 C2.31 0.66 4.62 1.32 7 2 C6.67 3.32 6.34 4.64 6 6 C4.68 5.34 3.36 4.68 2 4 C1.67 4.99 1.34 5.98 1 7 C-4.66275697 12.05056702 -8.51857297 13.29963195 -16.046875 13.1953125 C-17.20367767 13.19106766 -17.20367767 13.19106766 -18.3838501 13.18673706 C-20.83939332 13.17557013 -23.2945676 13.15047229 -25.75 13.125 C-27.41796347 13.11496568 -29.08593268 13.10584061 -30.75390625 13.09765625 C-34.83607897 13.07564225 -38.917977 13.04113667 -43 13 C-43 12.67 -43 12.34 -43 12 C-41.96593018 11.95512451 -40.93186035 11.91024902 -39.86645508 11.86401367 C-36.01725726 11.69331886 -32.16912244 11.50450478 -28.32104492 11.31030273 C-26.65786709 11.22888391 -24.99444342 11.15233121 -23.33081055 11.08081055 C-20.93456547 10.97693744 -18.53976019 10.85538885 -16.14453125 10.73046875 C-15.4047554 10.70220505 -14.66497955 10.67394135 -13.90278625 10.64482117 C-8.28292432 10.3253313 -4.95435772 8.95435772 -1 5 C-0.35232207 2.42938689 -0.35232207 2.42938689 0 0 Z " fill="#2B64C1" transform="translate(120,104)"/>
<path d="M0 0 C0.495 1.98 0.495 1.98 1 4 C-6.31065166 5.15326328 -13.51654294 5.1276612 -20.90625 5.09765625 C-22.24003038 5.09578772 -23.57381146 5.09436587 -24.90759277 5.09336853 C-28.39276067 5.0895776 -31.8778859 5.07977715 -35.36303711 5.06866455 C-38.92951887 5.05837623 -42.49600763 5.05385511 -46.0625 5.04882812 C-53.04168403 5.0381513 -60.02083996 5.02111676 -67 5 C-67 4.67 -67 4.34 -67 4 C-60.26729876 3.11576414 -53.75653432 2.90611951 -46.97265625 3.0078125 C-44.86003082 3.02532596 -42.74740031 3.04223451 -40.63476562 3.05859375 C-37.34563799 3.08951445 -34.05677125 3.12508066 -30.76782227 3.17138672 C-27.565235 3.21400169 -24.36295114 3.23723669 -21.16015625 3.2578125 C-19.70501366 3.28574387 -19.70501366 3.28574387 -18.22047424 3.3142395 C-11.67300338 3.33852755 -6.15654656 2.21955312 0 0 Z " fill="#1478F2" transform="translate(138,137)"/>
<path d="M0 0 C0.33 0 0.66 0 1 0 C1 6.93 1 13.86 1 21 C-1.31 21.33 -3.62 21.66 -6 22 C-5.690625 21.175 -5.38125 20.35 -5.0625 19.5 C-4.09750769 16.32120181 -3.69460153 13.39219612 -3.3515625 10.1015625 C-2.75320746 6.52472902 -1.37433189 3.34619939 0 0 Z " fill="#B4C4E6" transform="translate(117,88)"/>
<path d="M0 0 C2.64 0.33 5.28 0.66 8 1 C8 1.66 8 2.32 8 3 C8.99 3.33 9.98 3.66 11 4 C10.34 5.98 9.68 7.96 9 10 C9.66 10 10.32 10 11 10 C11 10.66 11 11.32 11 12 C7.60538272 11.71711523 6.25867941 11.25867941 3.8125 8.8125 C1.95037885 5.92300167 0.92096522 3.30012538 0 0 Z " fill="#287BE6" transform="translate(53,127)"/>
<path d="M0 0 C4.67623652 1.50307602 5.85884357 4.8653531 8 9 C9.35700647 11.71401294 9.1123861 13.84846316 9.09765625 16.8828125 C9.09443359 18.04941406 9.09121094 19.21601562 9.08789062 20.41796875 C9.07951172 21.64128906 9.07113281 22.86460938 9.0625 24.125 C9.05798828 25.35605469 9.05347656 26.58710937 9.04882812 27.85546875 C9.0370133 30.90369392 9.02054028 33.95182314 9 37 C8.67 37 8.34 37 8 37 C7.67 28.09 7.34 19.18 7 10 C6.01 9.67 5.02 9.34 4 9 C4 8.34 4 7.68 4 7 C3.34 6.67 2.68 6.34 2 6 C0 3 0 3 0 0 Z " fill="#8CAEEC" transform="translate(145,46)"/>
<path d="M0 0 C3.92362157 7.84724314 4.29195865 15.3223402 4 24 C3.01 24.33 2.02 24.66 1 25 C0.67 16.75 0.34 8.5 0 0 Z " fill="#5088E1" transform="translate(139,80)"/>
<path d="M0 0 C0.33 0 0.66 0 1 0 C1.07413521 5.07198888 1.12859451 10.14366268 1.16479492 15.21606445 C1.17988516 16.94170627 1.20035975 18.66730972 1.22631836 20.39282227 C1.26269209 22.87265488 1.27972359 25.35198064 1.29296875 27.83203125 C1.30845261 28.60400345 1.32393646 29.37597565 1.33988953 30.17134094 C1.34156107 35.48651595 1.34156107 35.48651595 -0.3503418 38.0300293 C-2 39 -2 39 -4.6875 38.6875 C-5.450625 38.460625 -6.21375 38.23375 -7 38 C-7 37.34 -7 36.68 -7 36 C-5.02 36 -3.04 36 -1 36 C-0.67 24.12 -0.34 12.24 0 0 Z " fill="#396ABA" transform="translate(138,76)"/>
<path d="M0 0 C1.8125 1.4375 1.8125 1.4375 3 3 C2.360625 3.28875 1.72125 3.5775 1.0625 3.875 C-1.15206079 4.82823451 -1.15206079 4.82823451 -2 7 C-4.0625 7.625 -4.0625 7.625 -6 8 C-6.33 7.01 -6.66 6.02 -7 5 C-7.99 4.34 -8.98 3.68 -10 3 C-9.67 2.34 -9.34 1.68 -9 1 C-7.68 1 -6.36 1 -5 1 C-4.154375 0.773125 -3.30875 0.54625 -2.4375 0.3125 C-1.633125 0.209375 -0.82875 0.10625 0 0 Z M-4 2 C-3 4 -3 4 -3 4 Z " fill="#6EA1F6" transform="translate(126,72)"/>
<path d="M0 0 C2.22682173 0.13106542 4.45724401 0.20283447 6.6875 0.24609375 C8.03906925 0.27902078 9.3906316 0.31223261 10.7421875 0.34570312 C12.87527893 0.39319812 15.00834005 0.43765307 17.14160156 0.47680664 C19.1988595 0.51644232 21.25555184 0.56799284 23.3125 0.62109375 C24.54613281 0.6461499 25.77976563 0.67120605 27.05078125 0.69702148 C30 1 30 1 32 3 C11.705 2.505 11.705 2.505 -9 2 C-9 1.67 -9 1.34 -9 1 C-2.25 -1.125 -2.25 -1.125 0 0 Z " fill="#71A4F1" transform="translate(80,69)"/>
<path d="M0 0 C5.39539427 -0.21581577 9.95457548 -0.21506442 15 2 C15.66 2.66 16.32 3.32 17 4 C14.34771188 5.07525194 11.71631546 6.09456151 9 7 C8.67 5.35 8.34 3.7 8 2 C5.03 1.505 5.03 1.505 2 1 C1.67 1.66 1.34 2.32 1 3 C0.67 2.01 0.34 1.02 0 0 Z " fill="#A2BBF4" transform="translate(127,41)"/>
<path d="M0 0 C6.70212766 1.93617021 6.70212766 1.93617021 9 5 C9 5.66 9 6.32 9 7 C8.01 7 7.02 7 6 7 C6 6.34 6 5.68 6 5 C3.80485127 4.0406843 3.80485127 4.0406843 1 4 C-1.0167658 5.64633943 -3.01739574 7.31267723 -5 9 C-7.375 8.8125 -7.375 8.8125 -9 8 C-6.32521756 6.3372974 -4.0004856 5.00016187 -1 4 C-0.26676204 1.98491642 -0.26676204 1.98491642 0 0 Z " fill="#306ECD" transform="translate(122,107)"/>
<path d="M0 0 C0.33 0 0.66 0 1 0 C1.05534912 0.62044189 1.11069824 1.24088379 1.16772461 1.88012695 C1.42060348 4.69126637 1.67898834 7.50187322 1.9375 10.3125 C2.02451172 11.28896484 2.11152344 12.26542969 2.20117188 13.27148438 C2.28818359 14.20927734 2.37519531 15.14707031 2.46484375 16.11328125 C2.543396 16.97735596 2.62194824 17.84143066 2.70288086 18.73168945 C2.94787977 21.16086712 2.94787977 21.16086712 4 24 C4.03954234 26.33299825 4.04401732 28.66708189 4 31 C-0.89343669 26.10656331 -0.10467573 16.67046141 -0.13623047 10.08032227 C-0.1200321 6.71916141 -0.07166854 3.36045831 0 0 Z " fill="#C5D5F7" transform="translate(68,75)"/>
<path d="M0 0 C1.32 0.66 2.64 1.32 4 2 C3.566875 2.81404297 3.566875 2.81404297 3.125 3.64453125 C2.75375 4.35996094 2.3825 5.07539062 2 5.8125 C1.62875 6.52019531 1.2575 7.22789063 0.875 7.95703125 C-0.19685358 10.08920729 -0.19685358 10.08920729 0 13 C-0.31421071 15.00309329 -0.6451046 17.00371336 -1 19 C-1.33 19 -1.66 19 -2 19 C-2.05451714 16.95863605 -2.09302485 14.91684144 -2.125 12.875 C-2.14820313 11.73804688 -2.17140625 10.60109375 -2.1953125 9.4296875 C-1.99672109 5.94242233 -1.2524801 3.2446138 0 0 Z " fill="#8BADEC" transform="translate(54,52)"/>
<path d="M0 0 C0.33 0 0.66 0 1 0 C1 9.57 1 19.14 1 29 C0.01 29 -0.98 29 -2 29 C-1.88201056 25.03047101 -1.75778201 21.06119219 -1.62768555 17.09204102 C-1.58428777 15.74085853 -1.5426163 14.38961947 -1.50268555 13.03833008 C-1.44510048 11.09963299 -1.38085702 9.16113724 -1.31640625 7.22265625 C-1.27974854 6.05484619 -1.24309082 4.88703613 -1.20532227 3.68383789 C-1 1 -1 1 0 0 Z " fill="#4985E0" transform="translate(66,79)"/>
<path d="M0 0 C0.33 0 0.66 0 1 0 C1.51778074 7.69479711 0.7505733 13.21882953 -3 20 C-3.33 20 -3.66 20 -4 20 C-3.21085905 13.21338787 -1.58725189 6.63850633 0 0 Z " fill="#357EDC" transform="translate(153,115)"/>
<path d="M0 0 C0.33 0 0.66 0 1 0 C1.16843931 2.24986799 1.33468654 4.49990017 1.5 6.75 C1.5928125 8.00296875 1.685625 9.2559375 1.78125 10.546875 C1.93838402 13.02734771 2 15.51455517 2 18 C2.66 18.33 3.32 18.66 4 19 C3.34 19.99 2.68 20.98 2 22 C1.34 22 0.68 22 0 22 C0 14.74 0 7.48 0 0 Z " fill="#3E89EA" transform="translate(52,104)"/>
<path d="M0 0 C0.66 0.33 1.32 0.66 2 1 C2 2.98 2 4.96 2 7 C-1.25543229 6.65120368 -2.01873107 5.97866739 -4.25 3.4375 C-5.11625 2.2309375 -5.11625 2.2309375 -6 1 C-5.38125 1.20625 -4.7625 1.4125 -4.125 1.625 C-3.073125 1.810625 -3.073125 1.810625 -2 2 C-1.34 1.34 -0.68 0.68 0 0 Z " fill="#C6D6FA" transform="translate(134,103)"/>
<path d="M0 0 C1.485 0.99 1.485 0.99 3 2 C3 2.66 3 3.32 3 4 C2.34 4 1.68 4 1 4 C1 10.93 1 17.86 1 25 C0.67 25 0.34 25 0 25 C0 16.75 0 8.5 0 0 Z " fill="#4B67A2" transform="translate(118,82)"/>
<path d="M0 0 C2.91517292 1.07401108 4.77810176 1.77810176 7 4 C7 4.99 7 5.98 7 7 C6.01 7.33 5.02 7.66 4 8 C1.44971017 6.72485508 1.06918289 5.59658703 0 3 C0 2.01 0 1.02 0 0 Z " fill="#EFF7FD" transform="translate(109,73)"/>
<path d="M0 0 C0.66 0.33 1.32 0.66 2 1 C2 1.99 2 2.98 2 4 C-1.33303391 6.49977543 -2.73303602 7 -7 7 C-5.66667905 3.00003714 -3.5042173 2.16217663 0 0 Z " fill="#99B9F9" transform="translate(62,46)"/>
<path d="M0 0 C0 0.66 0 1.32 0 2 C0.99 2.33 1.98 2.66 3 3 C0.525 4.485 0.525 4.485 -2 6 C-2.99 5.34 -3.98 4.68 -5 4 C-5 3.01 -5 2.02 -5 1 C-3 0 -3 0 0 0 Z " fill="#1F81FA" transform="translate(61,128)"/>
<path d="M0 0 C1.32 0 2.64 0 4 0 C3.67 1.65 3.34 3.3 3 5 C1.35 5.33 -0.3 5.66 -2 6 C-2 5.01 -2 4.02 -2 3 C-1.34 3 -0.68 3 0 3 C0 2.01 0 1.02 0 0 Z " fill="#F8F9FB" transform="translate(132,74)"/>
<path d="M0 0 C3.96 0 7.92 0 12 0 C8.6490795 2.233947 6.81180044 2.36274239 2.9375 2.65625 C0.68119395 2.9230571 0.68119395 2.9230571 -2 5 C-1.34 3.35 -0.68 1.7 0 0 Z " fill="#A6BDF2" transform="translate(70,41)"/>
<path d="M0 0 C2.97 0.33 5.94 0.66 9 1 C9.33 1.99 9.66 2.98 10 4 C3.375 3.375 3.375 3.375 0 0 Z " fill="#226DCC" transform="translate(62,139)"/>
<path d="M0 0 C0.33 0 0.66 0 1 0 C1 3.96 1 7.92 1 12 C0.01 12.33 -0.98 12.66 -2 13 C-1.34 8.71 -0.68 4.42 0 0 Z " fill="#BFCDF5" transform="translate(116,97)"/>
<path d="M0 0 C0.33 0 0.66 0 1 0 C1.1875 3.375 1.1875 3.375 1 7 C0.01 7.66 -0.98 8.32 -2 9 C-2.125 5.625 -2.125 5.625 -2 2 C-1.34 1.34 -0.68 0.68 0 0 Z " fill="#5B95ED" transform="translate(64,82)"/>
<path d="M0 0 C0 1.98 0 3.96 0 6 C-1.9375 5.6875 -1.9375 5.6875 -4 5 C-4.33 4.01 -4.66 3.02 -5 2 C-1.125 0 -1.125 0 0 0 Z " fill="#1D7EF2" transform="translate(149,130)"/>
<path d="M0 0 C0.33 0 0.66 0 1 0 C1.33 2.97 1.66 5.94 2 9 C1.01 9.33 0.02 9.66 -1 10 C-1.02689216 8.52093108 -1.04634621 7.04172517 -1.0625 5.5625 C-1.07410156 4.73878906 -1.08570313 3.91507812 -1.09765625 3.06640625 C-1 1 -1 1 0 0 Z " fill="#4385E2" transform="translate(141,95)"/>
<path d="M0 0 C2.875 -0.1875 2.875 -0.1875 6 0 C6.66 0.99 7.32 1.98 8 3 C7.67 3.99 7.34 4.98 7 6 C4.56070254 4.07423885 2.19909405 2.19909405 0 0 Z " fill="#789AD4" transform="translate(109,72)"/>
<path d="M0 0 C1.2065625 0.0309375 1.2065625 0.0309375 2.4375 0.0625 C-2.3125 4.9375 -2.3125 4.9375 -4.5625 6.0625 C-3.48963568 0.08511307 -3.48963568 0.08511307 0 0 Z " fill="#1A2340" transform="translate(60.5625,42.9375)"/>
<path d="M0 0 C2.5 1.375 2.5 1.375 5 3 C5 3.66 5 4.32 5 5 C5.66 5.33 6.32 5.66 7 6 C4.625 6.1875 4.625 6.1875 2 6 C0 3 0 3 0 0 Z " fill="#224D9E" transform="translate(70,107)"/>
<path d="M0 0 C0.66 0 1.32 0 2 0 C2 1.98 2 3.96 2 6 C0.02 6 -1.96 6 -4 6 C-3.67 5.34 -3.34 4.68 -3 4 C-2.01 4 -1.02 4 0 4 C0 2.68 0 1.36 0 0 Z " fill="#78AAF4" transform="translate(136,66)"/>
<path d="M0 0 C2.4375 0.6875 2.4375 0.6875 5 2 C5.8125 4.625 5.8125 4.625 6 7 C5.01 7.495 5.01 7.495 4 8 C2.68 5.36 1.36 2.72 0 0 Z " fill="#18223F" transform="translate(148,47)"/>
<path d="M0 0 C0.66 0 1.32 0 2 0 C2.33 1.98 2.66 3.96 3 6 C2.01 6.495 2.01 6.495 1 7 C1 6.34 1 5.68 1 5 C0.34 5 -0.32 5 -1 5 C-0.67 3.35 -0.34 1.7 0 0 Z " fill="#69A0F6" transform="translate(141,74)"/>
<path d="M0 0 C0.66 0.66 1.32 1.32 2 2 C0.35 3.65 -1.3 5.3 -3 7 C-3.99 6.67 -4.98 6.34 -6 6 C-5.195625 5.38125 -4.39125 4.7625 -3.5625 4.125 C-0.96125481 2.25835959 -0.96125481 2.25835959 0 0 Z " fill="#3179DE" transform="translate(122,110)"/>
<path d="M0 0 C1.98 0.495 1.98 0.495 4 1 C3.2575 1.6496875 3.2575 1.6496875 2.5 2.3125 C0.66781808 3.99740483 0.66781808 3.99740483 1 7 C0.34 7 -0.32 7 -1 7 C-0.67 4.69 -0.34 2.38 0 0 Z " fill="#F5F9FD" transform="translate(71,73)"/>
</svg>
